<?xml version="1.0" encoding="utf-8"?>
<!-- Generator: Adobe Illustrator 27.0.0, SVG Export Plug-In . SVG Version: 6.00 Build 0)  -->
<svg version="1.1" id="logosandtypes_com" xmlns="http://www.w3.org/2000/svg" xmlns:xlink="http://www.w3.org/1999/xlink" x="0px"
	 y="0px" viewBox="0 0 250 172.35" style="enable-background:new 0 0 250 172.35;" xml:space="preserve">
<style type="text/css">
	.st0{fill:none;}
	.st1{fill:#00ADEE;}
</style>
<g id="Layer_2">
	<path id="Layer_3" class="st0" d="M50,11.28h150v150H50V11.28z"/>
</g>
<g id="getz_pharma">
	<path class="st1" d="M131.6,73.28l7.9,9.3h13.3v63.5h9.2v-72.8h-4.6H131.6z M164.7,73.28h9.3v72.8h-9.3V73.28z M176.6,73.28h9.3
		v72.8h-9.3L176.6,73.28z"/>
	<path class="st1" d="M127.6,110.38c-14.5,0-26.5-11.2-26.5-25.8c0-11.9,9.3-22.5,21.2-25.1h59.6l-6.7-9.3l-54.2,0.6
		c-16.6,2.6-28.5,17.2-28.5,33.7c0,19.9,15.3,35.1,35.1,35.1c1.4,0,11.9,0,21.9-8.6v-13.8C141.5,110.38,128.2,110.38,127.6,110.38z"
		/>
	<path class="st1" d="M86.5,84.58c0-18.6,13.4-34.5,31.8-37.7l53.6-0.6l-6.6-9.2l-48.3,0.5c-22.9,3.8-39.7,23.7-39.7,47
		c0,26.5,21.9,48.3,48.3,48.3c2.6,0,13.2,0,23.8-5.3v-10.6c-7.2,4.6-17.2,6.6-23.8,6.6C104.4,123.58,86.5,106.38,86.5,84.58z"/>
	<path class="st1" d="M73.3,84.48c0-25.3,18.1-47.1,43.1-51.6c3.3,0,28.4,0,45.7-0.6l-7.3-8.6H115c-29.8,5.9-51,31.1-51,60.8
		c0,34.3,27.7,62.2,62.1,62.2h0.2c7.3,0,15.9-1.9,23.2-4.6v-9.9c-7.2,3.3-15.8,5.3-23.2,5.3C97.1,137.48,73.3,113.68,73.3,84.48z"/>
	<path class="st1" d="M149.4,85.28h-7.2l7.2,7.9V85.28z"/>
</g>
</svg>
