<?xml version="1.0" encoding="UTF-8" standalone="no"?>
<svg
   version="1.1"
   width="1231.9999pt"
   height="604.00012pt"
   id="svg13"
   viewBox="0 0 1231.9999 604.00012"
   sodipodi:docname="janssen-pharmaceutica-seeklogo.cdr"
   xmlns:inkscape="http://www.inkscape.org/namespaces/inkscape"
   xmlns:sodipodi="http://sodipodi.sourceforge.net/DTD/sodipodi-0.dtd"
   xmlns="http://www.w3.org/2000/svg"
   xmlns:svg="http://www.w3.org/2000/svg">
  <sodipodi:namedview
     id="namedview15"
     pagecolor="#ffffff"
     bordercolor="#000000"
     borderopacity="0.25"
     inkscape:showpageshadow="2"
     inkscape:pageopacity="0.0"
     inkscape:pagecheckerboard="0"
     inkscape:deskcolor="#d1d1d1"
     inkscape:document-units="pt" />
  <defs
     id="defs7">
    <linearGradient
       id="grad1">
      <stop
         offset="0%"
         stop-color="#24ebff"
         stop-opacity="1.0000"
         id="stop2" />
      <stop
         offset="100%"
         stop-color="#0036ab"
         stop-opacity="1.0000"
         id="stop4" />
    </linearGradient>
  </defs>
  <path
     d="m 853.16,0 h 0.47 c 2.0401,2.7 4.3501,5.2101 6.9701,7.3602 23.3598,19.3399 52.28,30.3499 81.11,38.6498 4.1899,1.1701 8.4098,2.2802 12.6499,3.3199 6.59,1.62 13.2301,3.0501 19.8901,4.3702 5.9199,1.1801 11.8698,2.2099 17.8399,3.2 8.8699,1.4998 17.8401,2.3298 26.7899,3.1899 8.2301,0.7599 16.4702,1.36 24.7201,1.8102 9.58,0.68 19.19,0.8699 28.8,1.26 7.02,0.0498 14.0599,0 21.07,0.4799 7.8301,1.0199 15.2101,4.5898 21.0801,9.8399 9.7699,8.85 16.13,20.87 20.0999,33.3 -13.6999,2.1299 -27.5499,3.0401 -41.3901,3.45 -7.06,0.18 -14.1199,0.2001 -21.17,0.0502 -10.0599,-0.2602 -20.1098,-0.7702 -30.13,-1.58 -7.7698,-0.5902 -15.5098,-1.4202 -23.2398,-2.3301 -8.8801,-1.1101 -17.75,-2.31 -26.54,-4 -5.9201,-1.1302 -11.77,-2.5702 -17.57,-4.1601 C 967.71,96.3 960.8899,94.0802 954.2001,91.55 949.82,89.9101 945.5,88.1501 941.2401,86.26 918.4099,76.1 896.76,62.67 879.0599,44.9101 866.81,32.5202 856.3,17.4501 853.16,0 Z m 67.2001,526.6199 c 6.9398,-6.23 13.76,-12.6096 20.2899,-19.2699 5,-5.12 9.8299,-10.4 14.58,-15.7499 4.5501,-5.29 8.99,-10.6801 13.2899,-16.1801 8.06,-10.41 15.48,-21.31 22.4002,-32.51 9.7098,-15.9999 18.04,-32.8198 25.1499,-50.1299 10.26,-25.6399 17.3001,-52.5002 21.56,-79.77 4.5201,-33.91 6.44,-68.69 -0.2699,-102.4501 -5.4102,-26.4798 -14.61,-52.3899 -28.9301,-75.41 10.2399,0.3302 20.48,0.6 30.7199,0.9501 7.5501,0.22 15.1101,0.5298 22.6701,0.6599 9.32,0.4201 18.6599,0.6701 27.9901,0.9 7.35,0.3802 14.7198,0.47 22.0799,0.76 4.2299,0.15 8.46,0.1899 12.7001,0.3501 4.1499,0.1599 8.32,0.29 12.49,0.39 10.44,0.3498 20.88,0.58 31.32,0.97 6.7899,0.1299 13.57,0.4598 20.3698,0.5001 14.4102,0.4399 28.8201,0.79 43.23,1.0998 v 12.8999 c -0.5298,8.17 -6.8799,14.4403 -14.11,17.4101 -9.0799,3.7602 -18.57,6.45 -27.8098,9.8201 -9.4301,3.1898 -18.8501,6.4001 -28.27,9.6299 -8.0702,2.7802 -16.16,5.4901 -24.22,8.27 -3.46,1.1801 -6.91,2.3899 -10.3901,3.5 -1.09,0.36 -2.16,0.7401 -3.21,1.1199 0.6599,14.2002 0.62,28.4202 0.4099,42.6303 -0.8898,24.9899 -4.4898,49.9198 -10.9899,74.0798 -6.02,23.0502 -14.6699,45.4101 -25.6,66.5801 -7.7099,15.1699 -16.78,29.6498 -26.92,43.31 -6.6,8.9901 -13.8,17.53 -21.42,25.6601 -6.2799,6.6999 -12.89,13.0799 -19.7901,19.1199 -8.6199,7.49 -17.7599,14.3601 -27.3099,20.6099 -7.41,4.8299 -15.1001,9.21 -23.0201,13.1403 -4.47,2.2096 -9,4.2698 -13.5998,6.1597 -5.0102,2.08 -10.12,3.92 -15.2801,5.6103 -6.6099,2.1299 -13.33,3.8897 -20.1099,5.3396 z"
     style="fill:url(#grad1)"
     id="path9" />
  <path
     d="m 93.42,233.97 c 16.9999,-8.7999 36.6401,-12.4399 55.6699,-10.41 11.8902,1.37 24.1101,5.9601 31.86,15.4701 7.34,8.8599 9.8702,20.6799 9.8702,31.9399 0.01,31.9 0.0199,63.8 -0.0102,95.69 -16.7598,8.7602 -36.1698,10.8799 -54.83,10.29 -13.96,-0.64 -28.9,-3.6898 -39.4401,-13.5198 -8.32,-7.7202 -11.77,-19.3501 -11.6198,-30.45 -0.0303,-9.5103 2.4401,-19.2201 8.1902,-26.9102 6.3499,-8.6899 15.8998,-14.4099 25.7697,-18.28 15.67,-6.0101 32.4,-8.4399 48.9901,-10.2498 -0.01,-9.0902 0.7699,-18.9902 -4.3801,-27 -4.32,-6.9801 -12.57,-10.2201 -20.41,-11.0801 -15.1299,-1.8799 -30.35,2.23 -43.8497,8.8999 -1.9199,-4.7999 -3.8699,-9.6001 -5.8102,-14.39 z m 31.1499,67.5399 c -8.2698,4.57 -14.22,12.9402 -15.6999,22.2903 -1.4199,9.1298 -1.2099,19.3198 4.13,27.2398 4.86,7.19 13.5899,10.4601 21.8999,11.4301 11.09,1.1599 22.7801,0.51 32.98,-4.3702 0,-22.6998 0.0102,-45.3897 0,-68.0899 -14.7699,2.0501 -30.13,4.0099 -43.31,11.4999 z m 105.48,-68.1698 c 13.4501,-6.1999 28.1801,-9.1701 42.91,-10.01 11.42,-0.61 23.12,-0.7101 34.1901,2.59 9.0899,2.6201 17.7299,7.7998 23.1701,15.7 5.2098,7.3298 7.46,16.42 7.4798,25.3298 0.04,35.8002 0,71.6103 0.0201,107.4201 -8.1,0 -16.2,-0.01 -24.3,0 -0.0201,-35.82 0.0301,-71.6298 -0.03,-107.4399 -0.0201,-8.2001 -2.67,-16.99 -9.43,-22.1301 -7.63,-5.8898 -17.7801,-6.4001 -27.0301,-5.98 -7.84,0.2101 -15.5999,1.95 -22.7698,5.1302 0.01,43.4698 0,86.94 0.01,130.4198 -8.1099,-0.01 -16.2201,0 -24.3201,-0.01 0.07,-46.9998 -0.15,-94.0099 0.1,-141.0199 z M 397.1401,226.22 c 17.5499,-6.76 38.12,-3.4699 53.7299,6.63 -2.1,4.8801 -4.22,9.7401 -6.3301,14.62 -9.0499,-6.38 -20.63,-9.69 -31.6199,-7.4699 -6.5001,1.2699 -12.4699,5.4499 -15.44,11.4401 -4.25,8.4897 -3.4399,19.7798 3.3199,26.7599 6.7102,7.1798 16.4401,9.9499 25.16,13.8299 10.66,4.82 21.1201,11.99 26.2001,22.9102 5.1299,11.4097 4.93,25.2298 -0.8501,36.3699 -5.5698,10.87 -15.9199,18.8799 -27.4898,22.4901 -12.2001,3.8698 -25.42,3.24 -37.77,0.4399 -6.48,-1.5602 -12.8602,-3.9801 -18.2602,-7.9599 2.3,-5.2801 4.3401,-10.6801 6.7102,-15.9302 8.0798,6.2201 18.46,8.61 28.4899,8.78 8.1399,0.15 16.5801,-2.8199 21.96,-9.1099 6.7501,-7.6901 7.6399,-19.3799 3.63,-28.5701 -3.82,-8.21 -12.4299,-12.4799 -20.45,-15.6 -10.66,-4.0399 -21.5399,-9.1598 -28.8099,-18.28 -7.53,-9.33 -9.1301,-22.3399 -6.48,-33.77 2.9299,-12.4699 12.4299,-22.9499 24.3,-27.58 z M 507.39,225.61 c 17.2301,-5.8898 37,-2.59 52.1401,7.2601 -2.1302,4.8699 -4.2502,9.7501 -6.3802,14.62 -8.6,-6.1501 -19.51,-9.3501 -30.06,-7.7899 -6.48,0.9499 -12.7199,4.5198 -16.1198,10.2299 -4.8702,8.1 -4.75,19.3499 1.2498,26.86 5.3102,6.62 13.4402,9.9099 21.0901,13.0099 10.29,4.0802 20.55,9.58 27.4501,18.5 7.09,9.1199 9.0099,21.4801 6.8499,32.65 -2.6299,13.0301 -12.0101,24.12 -23.8501,29.89 -12.8299,6.48 -27.86,6.7201 -41.7299,4.13 -7.6499,-1.47 -15.2,-4.0799 -21.6,-8.6099 2.22,-5.33 4.4101,-10.6702 6.6001,-16.0101 8.5499,6.3902 19.45,8.89 29.9798,8.7599 7.78,-0.1499 15.7102,-3.2499 20.77,-9.3098 6.52,-7.5801 7.3902,-18.9502 3.6202,-27.9799 -3.71,-8.3801 -12.42,-12.78 -20.52,-15.9203 -10.6002,-4.03 -21.4101,-9.0799 -28.7102,-18.0799 -7.7899,-9.4601 -9.36,-22.79 -6.5698,-34.4299 3.1498,-12.8801 13.3398,-23.47 25.7899,-27.7801 z m 97.77,20.48 c 8.31,-12.31 22.0399,-20.6299 36.76,-22.5 14.9901,-1.87 31.3801,0.37 43.55,9.9301 10.7901,8.3401 16.8401,21.35 19.5999,34.4401 1.9902,9.1199 2.56,18.4799 2.52,27.7897 -31.1598,4.5403 -62.3199,9.0102 -93.4798,13.5502 1.1999,13.4201 4.4198,27.57 13.7798,37.7799 6.87,7.6402 17.0702,11.5801 27.1902,12.17 14.0298,0.72 28.4998,-1.5801 40.9399,-8.3399 2.0999,5.3499 4.2299,10.6799 6.37,16.02 -14.6599,8.1499 -31.8299,10.4199 -48.38,10.0999 -16.6099,-0.4099 -33.6299,-6.59 -44.7701,-19.3 -13,-14.5998 -17.4699,-34.7 -18,-53.7599 C 590.72,284.01 593.61,262.9001 605.16,246.09 Z m 16.6901,8.9 c -7.2601,12.42 -8.5601,27.22 -8.5901,41.3101 23.7101,-3.6 47.4301,-7.16 71.14,-10.7901 -0.2299,-12.5501 -1.4701,-26.17 -9.5199,-36.39 -7.2201,-9.1599 -20.0001,-11.7 -31.0201,-9.83 -9.2801,1.4701 -17.3801,7.6201 -22.0099,15.7 z M 741.03,233.31 c 18.6899,-8.5799 39.6201,-10.8799 59.9901,-10.1698 12.5598,0.6599 25.71,3.9299 35.18,12.6598 6.2798,5.76 10.2699,13.7701 11.73,22.1202 1.08,5.6398 0.79,11.3998 0.83,17.1099 0,33.1101 -0.0201,66.2199 0.01,99.3399 -8.1,0 -16.2,-0.01 -24.2901,0 -0.03,-35.7999 0.0202,-71.61 -0.03,-107.4099 -0.01,-8.42 -2.8398,-17.5101 -9.9799,-22.57 -8.1701,-5.9 -18.7901,-6.0199 -28.45,-5.4601 -7.19,0.33 -14.21,2.1699 -20.7901,5.01 -0.01,43.48 -0.01,86.9502 0,130.43 -8.1199,0 -16.2298,-0.01 -24.34,0 0.1001,-47.02 -0.18,-94.04 0.1401,-141.06 z M 27.2699,225.7101 c 8.0903,-0.04 16.1903,-0.01 24.2903,-0.0201 0.0397,42.7699 0.0097,85.5399 0.0199,128.3201 -0.0403,9.2999 0.35,18.6698 -1.2904,27.87 -2.0999,12.8999 -7.3,25.4899 -15.9998,35.35 C 25.6102,427.3299 13.1601,433.83 0,435.6601 V 419.69 c 3.6198,-1.84 7.4302,-3.4299 10.5897,-6.0401 7.5002,-5.8099 12.0302,-14.6497 14.2205,-23.7197 2.7499,-10.7402 2.4795,-21.89 2.4597,-32.8802 0,-43.78 0.0102,-87.56 0,-131.3399 z"
     style="fill:#003bab;fill-rule:evenodd"
     id="path11" />
</svg>
