<?xml version="1.0" encoding="UTF-8" standalone="no"?>
<!-- Created with Inkscape (http://www.inkscape.org/) -->

<svg
   version="1.1"
   id="svg2"
   width="466.66666"
   height="87.226669"
   viewBox="0 0 466.66666 87.226669"
   sodipodi:docname="johnson-and-johnson-seeklogo.eps"
   xmlns:inkscape="http://www.inkscape.org/namespaces/inkscape"
   xmlns:sodipodi="http://sodipodi.sourceforge.net/DTD/sodipodi-0.dtd"
   xmlns="http://www.w3.org/2000/svg"
   xmlns:svg="http://www.w3.org/2000/svg">
  <defs
     id="defs6" />
  <sodipodi:namedview
     id="namedview4"
     pagecolor="#ffffff"
     bordercolor="#000000"
     borderopacity="0.25"
     inkscape:showpageshadow="2"
     inkscape:pageopacity="0.0"
     inkscape:pagecheckerboard="0"
     inkscape:deskcolor="#d1d1d1" />
  <g
     id="g8"
     inkscape:groupmode="layer"
     inkscape:label="ink_ext_XXXXXX"
     transform="matrix(1.3333333,0,0,-1.3333333,0,87.226667)">
    <g
       id="g10"
       transform="scale(0.1)">
      <path
         d="m 1022.9,268.914 c -3.57,-28.59 21.39,-25.016 28.53,-7.176 7.15,14.242 -7.17,49.95 -7.17,49.95 0,0 -21.36,-14.27 -21.36,-42.774 v 0 z M 566.156,586.457 c 0,24.988 -14.265,53.547 -32.133,17.867 -17.867,-35.679 -14.265,-146.293 -14.265,-146.293 0,0 42.797,42.801 46.398,128.426 v 0 0 z M 1276.26,425.898 c -21.44,3.547 -35.71,-24.96 -17.87,-39.253 21.47,-17.868 53.57,-3.575 53.57,-3.575 0,0 -10.74,35.684 -35.7,42.828 v 0 0 z m -906.369,0 c -21.414,7.149 -39.254,-17.867 -24.961,-35.679 14.242,-17.84 49.949,-14.266 49.949,-14.266 3.543,3.547 -0.027,42.801 -24.988,49.945 v 0 0 z M 173.625,336.672 C 184.344,297.418 180.773,190.379 159.359,133.234 141.52,83.3125 120.105,36.9414 80.8516,8.40625 34.4805,-20.1523 5.91797,29.7656 16.6406,86.8594 34.4805,176.086 88,261.738 91.5742,261.738 -8.34766,329.5 -19.0391,458.004 23.7578,543.633 59.4375,614.988 137.945,654.242 180.773,654.242 c 3.543,0 7.145,0 7.145,-3.547 -28.559,-67.812 -28.559,-128.476 -25.012,-164.129 0,-49.972 10.719,-124.906 14.293,-128.48 10.719,10.691 32.106,28.559 53.52,46.398 57.066,35.68 96.316,42.801 96.316,42.801 -3.543,0 -42.797,-35.68 -42.797,-99.867 0,-85.652 78.504,-78.504 103.492,-42.852 10.692,17.868 10.692,49.973 10.692,53.52 -3.57,0 -53.52,-7.148 -74.93,24.984 -17.84,24.961 0,74.934 53.52,57.094 32.133,-7.144 39.25,-60.664 39.25,-60.664 10.722,3.57 17.84,7.145 28.535,10.719 10.719,3.574 17.867,10.719 28.558,14.265 0,3.547 0,78.481 0,107.039 3.547,28.536 17.84,99.922 67.813,124.907 35.652,21.386 67.762,-14.293 49.945,-78.504 C 569.676,490.109 519.758,429.445 519.758,429.445 V 311.688 c 0,0 53.515,99.89 60.664,110.609 28.531,35.68 71.359,28.562 71.359,-17.84 0,-46.398 -10.718,-71.387 -10.718,-110.609 0,-14.27 10.718,-14.27 14.292,-10.696 28.559,39.254 49.973,85.625 82.079,135.575 28.535,46.398 67.785,32.132 64.242,-10.723 0,-32.106 0,-53.492 0,-85.598 0,-7.148 7.144,-3.574 7.144,0 14.266,24.985 42.801,71.36 60.668,103.465 21.387,35.68 64.211,21.387 64.211,-24.961 0,-39.25 -3.574,-64.265 -7.144,-107.062 0,-10.696 7.144,-10.696 10.718,-3.575 35.68,46.399 49.973,78.504 78.477,128.481 7.15,10.719 14.32,24.984 17.84,24.984 3.6,7.149 10.7,3.547 10.7,0 0,0 3.6,-10.691 7.17,-17.84 7.15,-24.96 14.27,-39.253 24.99,-60.668 3.6,0 46.37,32.165 78.5,46.375 28.53,17.84 35.65,21.442 85.6,32.133 -17.81,-7.144 -46.37,-57.066 -46.37,-92.773 0,-82.051 64.21,-92.774 96.37,-67.785 28.59,21.414 28.59,71.359 24.99,82.05 0,0 -57.12,-21.41 -82.08,21.442 -17.84,28.531 10.69,64.215 53.54,53.519 24.99,-7.144 42.83,-46.371 42.83,-46.371 0,0 46.37,28.532 67.81,42.797 39.26,17.84 53.5,0 53.5,-35.652 -3.55,-35.707 -7.12,-89.227 -7.12,-89.227 0,0 42.82,74.961 64.21,103.465 42.83,57.121 67.81,7.149 67.81,-17.836 0,-32.164 -10.69,-60.668 -7.17,-114.187 0,-7.149 10.75,-10.719 14.29,-7.149 10.72,3.547 17.84,14.242 17.84,14.242 3.58,3.575 14.27,3.575 10.69,-3.546 -3.51,-14.266 -21.38,-39.227 -42.82,-53.575 -17.81,-10.691 -49.95,-7.093 -49.95,28.586 0,10.723 3.58,99.922 7.18,121.309 0,7.144 -7.18,14.266 -14.3,7.144 -39.22,-53.546 -60.66,-114.211 -78.45,-146.293 -10.72,-17.812 -42.85,-17.812 -42.85,7.149 0,53.547 3.6,85.652 3.6,139.172 3.57,14.265 -3.6,17.812 -14.3,14.265 -24.96,-17.839 -42.82,-28.558 -42.82,-28.558 0,-7.149 7.17,-82.078 -35.66,-121.332 -42.85,-39.254 -117.78,-28.563 -142.71,24.984 -21.44,46.402 -3.58,107.067 10.72,121.332 -17.87,-3.57 -28.56,-10.719 -42.86,-21.437 -17.78,-7.149 -28.56,-17.84 -42.82,-32.11 3.6,0 32.16,-78.476 -7.12,-107.09 -42.83,-24.96 -74.96,0 -74.96,28.559 0,28.531 32.13,60.641 35.7,60.641 0,3.574 -7.12,17.89 -10.72,28.558 -3.57,7.149 -7.14,14.266 -10.72,21.414 0,-3.574 -64.209,-103.492 -71.357,-117.761 -35.68,-49.973 -67.813,-24.985 -67.813,3.546 -3.547,35.68 7.149,89.227 3.574,117.762 0,10.719 -3.574,10.719 -10.691,3.571 -32.16,-49.973 -39.254,-78.504 -78.508,-139.2 -10.719,-14.265 -42.824,-24.957 -42.824,10.723 3.57,49.973 3.57,78.504 3.57,128.477 0,3.546 -3.57,10.695 -7.144,3.546 -35.68,-42.796 -60.668,-110.609 -89.227,-139.171 -32.105,-32.133 -60.668,-14.266 -57.094,14.238 0,49.976 0,78.508 3.547,124.906 0,10.723 -7.148,14.27 -14.242,3.574 -32.156,-49.972 -39.277,-71.359 -71.41,-146.316 -10.695,-24.961 -46.375,-17.817 -46.375,14.293 3.574,53.547 3.574,124.902 3.574,124.902 -10.691,-7.144 -17.84,-10.719 -28.558,-14.293 -7.149,-3.57 -14.266,-7.144 -24.961,-10.691 0,-3.574 7.144,-89.199 -57.094,-117.758 -49.973,-21.414 -107.067,-7.148 -124.879,64.238 -10.691,24.957 0,64.211 7.148,78.504 -14.265,-7.144 -21.414,-10.719 -35.679,-21.437 -14.375,-10.559 -21.469,-17.68 -35.762,-28.426 v 0 0 z m -49.973,-28.531 c -7.148,39.25 -10.691,64.211 -10.691,107.039 -3.574,42.824 -7.121,89.199 7.144,139.172 10.719,35.707 32.133,71.359 39.254,85.652 C 123.652,618.563 84.3984,597.176 55.8672,515.07 41.5742,479.418 41.5742,343.793 98.6914,275.98 c 7.1486,7.172 10.6956,10.719 14.2696,14.266 3.543,7.172 7.144,10.746 10.691,17.895 v 0 0 z M 52.293,65.5 c 0,-28.5586 17.8398,-32.1602 32.1054,-25.0117 17.8396,10.6914 35.6796,39.2265 42.8286,74.9847 14.293,99.894 3.574,160.586 0,164.132 C 123.652,279.578 45.1445,186.781 52.293,65.5 v 0 0 0"
         style="fill:#aa1c22;fill-opacity:1;fill-rule:nonzero;stroke:none"
         id="path12" />
      <path
         d="m 2039.88,486.566 c 3.54,-49.972 14.26,-124.906 14.26,-128.48 10.72,10.691 32.11,28.559 53.52,46.398 57.07,35.68 96.38,42.801 96.38,42.801 -3.58,0 -42.83,-35.68 -42.83,-99.867 3.57,-85.652 78.48,-78.504 103.44,-42.852 10.72,17.868 10.72,49.973 10.72,53.52 -3.57,0 -53.52,-7.148 -74.96,24.984 -17.81,24.961 0,74.934 53.55,57.094 32.16,-7.144 42.82,-60.664 42.82,-60.664 7.09,3.57 14.27,7.145 25.02,10.719 10.69,3.574 17.81,10.719 28.5,14.265 0,3.547 0,78.481 0,107.039 3.63,28.536 17.87,99.922 67.84,124.907 35.63,21.386 71.33,-14.293 49.95,-78.504 C 2446.7,490.109 2396.7,429.445 2396.7,429.445 V 311.688 c 0,0 53.55,99.89 60.67,110.609 28.59,35.68 71.36,28.562 71.36,-17.84 0,-46.398 -10.72,-71.387 -10.72,-110.609 0,-14.27 10.72,-14.27 14.26,-10.696 28.56,39.254 49.98,85.625 82.08,135.575 28.56,46.398 67.79,32.132 64.22,-10.723 0,-32.106 0,-53.492 0,-85.598 0,-7.148 7.12,-3.574 7.12,0 14.23,24.985 42.82,71.36 60.69,103.465 21.38,35.68 64.21,21.387 64.21,-24.961 0,-39.25 -3.6,-64.265 -7.15,-107.062 0,-10.696 7.15,-10.696 10.72,-3.575 35.66,46.399 49.95,78.504 78.48,128.481 7.12,10.719 14.19,24.984 17.82,24.984 3.54,7.149 10.72,3.547 10.72,0 0,0 3.57,-10.691 7.14,-17.84 7.18,-24.96 14.3,-39.253 24.99,-60.668 3.6,0 46.37,32.165 78.48,46.375 32.16,17.84 39.25,21.442 85.65,32.133 -14.24,-7.144 -42.8,-57.066 -42.8,-92.773 -3.6,-82.051 60.64,-92.774 92.78,-67.785 28.53,21.414 32.13,71.359 24.98,82.05 0,0 -57.09,-21.41 -82.05,21.442 -14.27,28.531 10.69,64.215 53.55,53.519 24.98,-7.144 42.82,-46.371 42.82,-46.371 0,0 46.38,28.532 71.33,42.797 35.68,17.84 50.01,0 50.01,-35.652 -3.55,-35.707 -7.15,-89.227 -7.15,-89.227 0,0 42.82,74.961 64.21,103.465 42.83,57.121 67.81,7.149 67.81,-17.836 0,-32.164 -10.69,-60.668 -7.17,-114.187 0,-7.149 10.75,-10.719 17.84,-7.149 10.72,7.149 21.41,24.961 21.41,24.961 7.18,7.149 17.87,3.574 14.27,-3.574 -3.55,-14.266 -32.13,-49.973 -53.57,-64.266 -17.82,-10.691 -49.98,-7.093 -49.98,28.586 0,10.723 3.6,99.922 7.2,121.309 0,7.144 -7.2,14.266 -14.26,7.144 -39.23,-53.546 -60.7,-114.211 -78.51,-146.293 -10.69,-17.812 -42.83,-17.812 -42.83,7.149 3.63,53.547 3.63,85.652 7.15,139.172 0,14.265 -7.15,17.812 -17.81,14.265 -24.96,-17.839 -42.83,-28.558 -42.83,-28.558 0,-7.149 7.2,-82.078 -35.62,-121.332 -42.83,-39.254 -117.79,-28.563 -142.72,24.984 -21.44,46.402 -3.6,107.067 10.72,121.332 -17.84,-3.57 -28.56,-10.719 -42.83,-21.437 -17.84,-7.149 -28.56,-17.84 -39.25,-32.11 0,0 28.59,-78.476 -10.72,-107.09 -42.83,-24.96 -74.93,0 -74.93,28.559 0,28.531 32.1,60.641 35.62,60.641 0,3.574 -7.17,17.89 -10.69,28.558 -3.6,7.149 -7.2,14.266 -10.7,21.414 0,-3.574 -60.74,-103.492 -71.44,-117.761 -35.62,-49.973 -67.81,-24.985 -67.81,3.546 -3.6,35.68 7.18,89.227 7.18,117.762 0,10.719 -7.18,10.719 -14.24,3.571 -32.16,-49.973 -39.26,-78.504 -78.48,-139.2 -10.72,-14.265 -42.83,-24.957 -42.83,10.723 3.6,49.973 3.6,78.504 3.6,128.477 0,3.546 -3.6,10.695 -7.2,3.546 -35.68,-42.796 -60.64,-110.609 -89.2,-139.171 -32.11,-32.133 -60.64,-14.266 -57.09,14.238 0,49.976 0,78.508 3.6,124.906 0,10.723 -7.15,14.27 -14.27,3.574 -32.1,-49.972 -39.25,-71.359 -67.81,-146.316 -10.72,-24.961 -49.95,-17.817 -49.95,14.293 3.55,53.547 3.55,124.902 3.55,124.902 -10.69,-7.144 -17.81,-10.719 -28.51,-14.293 -7.17,-3.57 -14.32,-7.144 -25.01,-10.691 0,-3.574 10.69,-89.199 -57.09,-117.758 -49.98,-21.414 -107.07,-7.148 -124.86,64.238 -7.17,24.957 0,64.211 7.12,78.504 -14.26,-7.144 -21.35,-10.719 -35.62,-21.437 -14.29,-10.696 -21.41,-17.813 -32.13,-28.563 7.12,-39.25 3.57,-146.316 -17.84,-203.437 -17.87,-49.9457 -39.23,-96.3207 -78.51,-124.79722 -46.37,-28.58598 -74.93,21.35942 -64.19,78.42582 17.82,89.2224 71.34,174.8784 74.94,174.8784 -3.6,3.543 -28.59,39.25 -67.82,39.25 -42.85,3.575 -74.96,-10.718 -74.96,-14.265 0,0 -3.6,-24.957 -10.72,-39.25 0,-7.149 -10.74,-14.27 -10.74,0 0,14.293 -3.5,35.703 0,35.703 0,0 -89.15,-17.867 -124.83,21.414 -24.96,24.961 0,60.668 49.97,57.094 32.17,-3.574 67.82,-32.16 67.82,-35.68 0,3.547 -7.18,24.957 -10.72,42.801 -3.6,7.144 -7.2,17.863 -14.27,25.012 l 32.08,17.812 c 7.2,-17.812 14.27,-28.531 17.87,-46.371 3.54,-21.414 3.54,-35.707 3.54,-57.066 17.87,3.546 28.62,7.144 42.88,7.144 28.51,3.547 32.11,0 49.95,0 -53.55,71.36 -60.69,146.293 -17.84,228.348 39.09,67.894 114.02,110.691 156.9,110.691 3.55,0 7.15,0 3.55,-3.547 -24.96,-71.386 -21.41,-128.476 -21.41,-164.129 v 0 z m -246.24,-182 c 0,0 -21.39,32.106 -53.52,42.852 -28.53,7.121 -42.8,-24.984 -14.24,-39.25 39.25,-17.895 67.76,-3.602 67.76,-3.602 v 0 0 z m 1106.18,-35.652 c -3.58,-28.59 24.98,-25.016 32.16,-7.176 7.09,14.242 -10.72,49.95 -10.72,49.95 0,0 -21.44,-14.27 -21.44,-42.774 v 0 0 z m -456.75,317.543 c 0,24.988 -14.26,53.547 -32.16,17.867 -17.81,-35.679 -14.24,-146.293 -14.24,-146.293 0,0 42.83,42.801 46.4,128.426 v 0 0 z m 710.11,-160.559 c -21.42,3.547 -35.66,-24.96 -17.82,-39.253 21.36,-17.868 53.55,-3.575 53.55,-3.575 0,0 -10.75,35.684 -35.73,42.828 v 0 0 z m -906.34,0 c -21.42,7.149 -39.23,-17.867 -24.96,-35.679 14.24,-17.84 49.94,-14.266 49.94,-14.266 3.6,3.547 0,42.801 -24.98,49.945 v 0 0 z M 2000.63,308.141 c -7.15,39.25 -10.73,64.211 -10.73,107.039 -3.54,42.824 -7.11,89.199 10.73,139.172 7.11,35.707 28.53,71.359 39.22,85.652 -39.22,-21.414 -74.99,-42.828 -107.07,-124.906 -10.69,-35.653 -14.23,-171.278 46.38,-239.067 3.63,7.149 7.2,10.696 10.72,14.242 3.63,7.145 7.14,10.719 10.75,17.868 v 0 0 z M 1929.27,65.5 c 3.6,-28.5586 17.86,-32.1602 32.16,-25.0117 17.78,10.6914 35.65,39.2265 42.77,74.9847 17.84,99.894 3.57,160.586 0,164.132 -3.57,-0.027 -82.05,-92.824 -74.93,-214.105 v 0 0 0"
         style="fill:#aa1c22;fill-opacity:1;fill-rule:nonzero;stroke:none"
         id="path14" />
    </g>
  </g>
</svg>
