<?xml version="1.0" encoding="UTF-8"?>
<svg width="150" height="40" viewBox="0 0 150 40" fill="none" xmlns="http://www.w3.org/2000/svg">
  <path
    d="M20.5 8C25.7467 8 30 12.2533 30 17.5C30 22.7467 25.7467 27 20.5 27C15.2533 27 11 22.7467 11 17.5C11 12.2533 15.2533 8 20.5 8ZM20.5 10C16.3579 10 13 13.3579 13 17.5C13 21.6421 16.3579 25 20.5 25C24.6421 25 28 21.6421 28 17.5C28 13.3579 24.6421 10 20.5 10Z"
    class="fill-emerald-600 dark:fill-emerald-400"
  />
  <path
    d="M45 10H47V25H45V10ZM52 10H54V25H52V10ZM59 10H61V25H59V10Z"
    class="fill-emerald-600 dark:fill-emerald-400"
  />
  <path
    d="M75 10C79.4183 10 83 13.5817 83 18C83 22.4183 79.4183 26 75 26C70.5817 26 67 22.4183 67 18C67 13.5817 70.5817 10 75 10ZM75 12C71.6863 12 69 14.6863 69 18C69 21.3137 71.6863 24 75 24C78.3137 24 81 21.3137 81 18C81 14.6863 78.3137 12 75 12Z"
    class="fill-emerald-600 dark:fill-emerald-400"
  />
</svg>
