<?xml version="1.0" encoding="UTF-8" standalone="no"?>
<!-- Created with Inkscape (http://www.inkscape.org/) -->

<svg
   version="1.1"
   id="svg2"
   width="258.66666"
   height="258.66666"
   viewBox="0 0 258.66666 258.66666"
   sodipodi:docname="novartis-seeklogo.eps"
   xmlns:inkscape="http://www.inkscape.org/namespaces/inkscape"
   xmlns:sodipodi="http://sodipodi.sourceforge.net/DTD/sodipodi-0.dtd"
   xmlns="http://www.w3.org/2000/svg"
   xmlns:svg="http://www.w3.org/2000/svg">
  <defs
     id="defs6" />
  <sodipodi:namedview
     id="namedview4"
     pagecolor="#ffffff"
     bordercolor="#000000"
     borderopacity="0.25"
     inkscape:showpageshadow="2"
     inkscape:pageopacity="0.0"
     inkscape:pagecheckerboard="0"
     inkscape:deskcolor="#d1d1d1" />
  <g
     id="g8"
     inkscape:groupmode="layer"
     inkscape:label="ink_ext_XXXXXX"
     transform="matrix(1.3333333,0,0,-1.3333333,0,258.66667)">
    <g
       id="g10"
       transform="scale(0.1)">
      <path
         d="M 2.59766,1933.23 H 1930.16 V 5.66797 H 2.59766 V 1933.23"
         style="fill:#ffffff;fill-opacity:1;fill-rule:evenodd;stroke:none"
         id="path12" />
      <path
         d="m 476.434,859.305 c 0.414,-16.215 3.117,-21.621 7.285,-23.063 3.523,-1.25 7.472,-1.457 10.801,-1.457 2.285,0 3.531,-0.43 3.531,-1.664 0,-1.664 -1.871,-2.09 -4.785,-2.09 -13.508,0 -21.825,0.633 -25.774,0.633 -1.855,0 -11.629,-0.633 -22.445,-0.633 -2.695,0 -4.563,0.223 -4.563,2.09 0,1.234 1.235,1.664 3.329,1.664 2.695,0 6.437,0.207 9.351,1.043 5.406,1.66 6.231,7.688 6.441,25.777 l 1.856,123.028 c 0,4.152 0.633,7.066 2.707,7.066 2.285,0 4.164,-2.699 7.687,-6.449 2.504,-2.703 34.09,-36.566 64.438,-66.711 14.125,-14.133 42.195,-44.074 45.727,-47.394 h 1.039 l -2.071,93.324 c -0.215,12.672 -2.093,16.629 -7.082,18.703 -3.113,1.254 -8.101,1.254 -11.015,1.254 -2.493,0 -3.317,0.621 -3.317,1.859 0,1.66 2.281,1.875 5.403,1.875 10.808,0 20.785,-0.625 25.152,-0.625 2.289,0 10.172,0.625 20.367,0.625 2.703,0 4.774,-0.215 4.774,-1.875 0,-1.238 -1.247,-1.859 -3.735,-1.859 -2.078,0 -3.746,0 -6.242,-0.629 -5.816,-1.664 -7.48,-6.024 -7.688,-17.66 l -2.292,-131.145 c 0,-4.586 -0.825,-6.441 -2.696,-6.441 -2.281,0 -4.785,2.285 -7.07,4.57 -13.09,12.473 -39.688,39.68 -61.309,61.094 -22.66,22.457 -45.726,48.437 -49.468,52.39 h -0.625 l 2.289,-87.3"
         style="fill:#1b678d;fill-opacity:1;fill-rule:evenodd;stroke:none"
         id="path14" />
      <path
         d="m 680.469,909.602 c 0,35.535 23.492,81.476 85.84,81.476 51.754,0 83.964,-30.129 83.964,-77.734 0,-47.61 -33.246,-85.215 -86.039,-85.215 -59.644,0 -83.765,44.672 -83.765,81.473 z m 140.707,-3.954 c 0,46.543 -26.805,75.45 -60.895,75.45 -23.894,0 -51.129,-13.301 -51.129,-65.051 0,-43.246 23.907,-77.52 63.805,-77.52 14.551,0 48.219,7.067 48.219,67.121"
         style="fill:#1b678d;fill-opacity:1;fill-rule:evenodd;stroke:none"
         id="path16" />
      <path
         d="m 918.172,967.797 c -4.777,11.426 -8.317,13.711 -15.793,15.793 -3.109,0.836 -6.438,0.836 -8.102,0.836 -1.879,0 -2.5,0.621 -2.5,1.859 0,1.66 2.286,1.875 5.411,1.875 11.019,0 22.859,-0.625 30.136,-0.625 5.192,0 15.168,0.625 25.559,0.625 2.484,0 4.773,-0.406 4.773,-1.875 0,-1.449 -1.234,-1.859 -3.113,-1.859 -3.32,0 -6.434,-0.215 -8.098,-1.469 -1.465,-1.031 -2.074,-2.488 -2.074,-4.359 0,-2.703 1.859,-8.512 4.774,-15.985 l 35.742,-94.359 h 0.836 c 8.937,22.844 35.957,89.773 40.937,103.492 1.03,2.699 1.88,5.813 1.88,7.692 0,1.66 -0.85,3.324 -2.7,3.949 -2.49,0.824 -5.63,1.039 -8.31,1.039 -1.87,0 -3.53,0.207 -3.53,1.664 0,1.664 1.86,2.07 5.81,2.07 10.39,0 19.12,-0.625 21.82,-0.625 3.53,0 13.31,0.625 19.54,0.625 2.71,0 4.37,-0.406 4.37,-1.875 0,-1.449 -1.26,-1.859 -3.33,-1.859 -2.08,0 -6.43,0 -10.2,-2.5 -2.7,-1.867 -5.81,-5.406 -11.42,-18.715 -8.09,-19.516 -13.72,-30.742 -24.93,-56.313 l -27.656,-63.382 c -5.402,-12.059 -6.649,-15.387 -9.547,-15.387 -2.703,0 -3.965,2.902 -7.91,12.687 l -52.375,126.981"
         style="fill:#1b678d;fill-opacity:1;fill-rule:evenodd;stroke:none"
         id="path18" />
      <path
         d="m 1137.62,885.293 c -1.05,0 -1.47,-0.434 -1.88,-1.664 l -11.22,-29.715 c -2.09,-5.211 -3.13,-10.203 -3.13,-12.684 0,-3.742 1.89,-6.445 8.32,-6.445 h 3.12 c 2.51,0 3.13,-0.43 3.13,-1.664 0,-1.664 -1.26,-2.09 -3.55,-2.09 -6.65,0 -15.59,0.633 -22.02,0.633 -2.3,0 -13.72,-0.633 -24.52,-0.633 -2.7,0 -3.95,0.426 -3.95,2.09 0,1.234 0.82,1.664 2.48,1.664 l 6.46,0.414 c 9.55,1.25 13.5,8.317 17.64,18.715 l 52.18,130.512 c 2.5,6.023 3.75,8.316 5.83,8.316 1.87,0 3.11,-1.879 5.19,-6.652 4.99,-11.434 38.26,-96.238 51.54,-127.813 7.89,-18.711 13.92,-21.621 18.29,-22.66 3.11,-0.625 6.24,-0.832 8.73,-0.832 1.66,0 2.7,-0.207 2.7,-1.664 0,-1.664 -1.87,-2.09 -9.55,-2.09 -7.5,0 -22.66,0 -39.29,0.426 -3.74,0.207 -6.25,0.207 -6.25,1.664 0,1.234 0.84,1.664 2.92,1.871 1.47,0.406 2.92,2.289 1.87,4.781 l -16.62,44.047 c -0.41,1.039 -1.03,1.473 -2.07,1.473 z m 42.4,10.379 c 1.03,0 1.25,0.625 1.03,1.246 l -18.7,51.348 c -0.21,0.82 -0.42,1.859 -1.04,1.859 -0.63,0 -1.04,-1.039 -1.25,-1.859 l -19.13,-51.141 c -0.2,-0.828 0,-1.453 0.84,-1.453 h 38.25"
         style="fill:#1b678d;fill-opacity:1;fill-rule:evenodd;stroke:none"
         id="path20" />
      <path
         d="m 1316.34,927.895 c 0,31.585 0,37.414 -0.41,44.062 -0.42,7.066 -2.09,10.391 -8.94,11.84 -1.67,0.414 -5.2,0.629 -8.11,0.629 -2.29,0 -3.53,0.41 -3.53,1.859 0,1.469 1.45,1.875 4.57,1.875 11.02,0 24.1,-0.625 28.47,-0.625 7.06,0 22.85,0.625 29.31,0.625 13.09,0 27.01,-1.246 38.24,-8.937 5.82,-3.938 14.13,-14.547 14.13,-28.477 0,-15.367 -6.44,-29.504 -27.44,-46.555 18.49,-23.269 32.84,-41.781 45.1,-54.648 11.65,-12.055 20.15,-13.523 23.29,-14.145 2.27,-0.406 4.16,-0.613 5.82,-0.613 1.66,0 2.49,-0.621 2.49,-1.664 0,-1.664 -1.46,-2.09 -3.95,-2.09 h -19.76 c -11.62,0 -16.83,1.051 -22.22,3.961 -8.94,4.781 -16.84,14.551 -28.48,30.563 -8.31,11.418 -17.88,25.543 -20.58,28.66 -1.04,1.246 -2.27,1.457 -3.74,1.457 l -18.09,0.414 c -1.04,0 -1.66,-0.414 -1.66,-1.664 v -2.906 c 0,-19.336 0,-35.758 1.04,-44.477 0.62,-6.027 1.88,-10.59 8.12,-11.422 3.1,-0.418 7.69,-0.832 10.17,-0.832 1.66,0 2.51,-0.621 2.51,-1.664 0,-1.457 -1.47,-2.09 -4.17,-2.09 -12.06,0 -27.43,0.633 -30.54,0.633 -3.96,0 -17.04,-0.633 -25.36,-0.633 -2.7,0 -4.16,0.633 -4.16,2.09 0,1.043 0.84,1.664 3.33,1.664 3.12,0 5.6,0.414 7.49,0.832 4.14,0.832 5.18,5.395 6.02,11.422 1.04,8.719 1.04,25.141 1.04,44.277 z m 24.51,-16.422 c 0,-2.289 0.44,-3.121 1.88,-3.746 4.37,-1.45 10.61,-2.079 15.79,-2.079 8.32,0 11.02,0.832 14.76,3.536 6.24,4.574 12.26,14.136 12.26,31.183 0,29.5 -19.54,38.031 -31.79,38.031 -5.21,0 -8.95,-0.214 -11.02,-0.839 -1.44,-0.418 -1.88,-1.243 -1.88,-2.903 v -63.183"
         style="fill:#1b678d;fill-opacity:1;fill-rule:evenodd;stroke:none"
         id="path22" />
      <path
         d="m 1533.37,976.52 -30.97,-0.825 c -12.05,-0.41 -17.04,-1.465 -20.16,-6.027 -2.08,-3.129 -3.12,-5.617 -3.53,-7.281 -0.42,-1.664 -1.05,-2.504 -2.29,-2.504 -1.46,0 -1.87,1.066 -1.87,3.328 0,3.328 3.95,22.25 4.36,23.91 0.63,2.703 1.25,3.957 2.5,3.957 1.66,0 3.74,-2.078 8.94,-2.5 6.03,-0.633 13.92,-1.043 20.79,-1.043 h 82.3 c 13.29,0 18.27,2.074 19.95,2.074 1.46,0 1.65,-1.234 1.65,-4.359 0,-4.367 -0.62,-18.711 -0.62,-24.105 -0.19,-2.079 -0.61,-3.329 -1.86,-3.329 -1.66,0 -2.08,1.028 -2.29,4.168 l -0.22,2.289 c -0.4,5.395 -6.03,11.207 -24.52,11.622 l -26.19,0.625 v -85.204 c 0,-19.136 0,-35.558 1.04,-44.472 0.62,-5.832 1.88,-10.395 8.11,-11.227 2.9,-0.418 7.48,-0.832 10.6,-0.832 2.29,0 3.32,-0.621 3.32,-1.664 0,-1.457 -1.66,-2.09 -3.95,-2.09 -13.71,0 -26.8,0.633 -32.61,0.633 -4.8,0 -17.89,-0.633 -26.21,-0.633 -2.7,0 -4.14,0.633 -4.14,2.09 0,1.043 0.82,1.664 3.32,1.664 3.11,0 5.59,0.414 7.48,0.832 4.17,0.832 5.41,5.395 6.03,11.422 1.04,8.719 1.04,25.141 1.04,44.277 v 85.204"
         style="fill:#1b678d;fill-opacity:1;fill-rule:evenodd;stroke:none"
         id="path24" />
      <path
         d="m 1694.83,927.895 c 0,31.585 0,37.414 -0.41,44.062 -0.42,7.066 -2.49,10.59 -7.07,11.633 -2.29,0.621 -4.99,0.836 -7.49,0.836 -2.05,0 -3.31,0.41 -3.31,2.074 0,1.254 1.66,1.66 4.99,1.66 7.89,0 20.98,-0.625 27.03,-0.625 5.18,0 17.45,0.625 25.34,0.625 2.71,0 4.37,-0.406 4.37,-1.66 0,-1.664 -1.24,-2.074 -3.32,-2.074 -2.08,0 -3.75,-0.215 -6.24,-0.629 -5.61,-1.035 -7.28,-4.574 -7.69,-11.84 -0.42,-6.648 -0.42,-12.477 -0.42,-44.062 v -36.579 c 0,-20.171 0,-36.589 0.83,-45.507 0.62,-5.618 2.08,-9.36 8.32,-10.192 2.91,-0.418 7.48,-0.832 10.59,-0.832 2.3,0 3.33,-0.621 3.33,-1.664 0,-1.457 -1.67,-2.09 -3.96,-2.09 -13.7,0 -26.8,0.633 -32.42,0.633 -4.78,0 -17.87,-0.633 -26.19,-0.633 -2.7,0 -4.14,0.633 -4.14,2.09 0,1.043 0.84,1.664 3.33,1.664 3.1,0 5.61,0.414 7.47,0.832 4.16,0.832 5.4,4.367 6.02,10.379 1.04,8.731 1.04,25.149 1.04,45.32 v 36.579"
         style="fill:#1b678d;fill-opacity:1;fill-rule:evenodd;stroke:none"
         id="path26" />
      <path
         d="m 1818.89,833.539 c -3.33,1.453 -3.95,2.481 -3.95,7.066 0,11.426 0.83,23.907 1.04,27.211 0.21,3.129 0.83,5.43 2.5,5.43 1.87,0 2.07,-1.883 2.07,-3.547 0,-2.707 0.84,-7.066 1.87,-10.613 4.58,-15.375 16.84,-20.984 29.73,-20.984 18.69,0 27.84,12.691 27.84,23.711 0,10.171 -3.13,19.929 -20.36,33.238 l -9.57,7.476 c -22.85,17.883 -30.76,32.434 -30.76,49.258 0,22.871 19.13,39.293 48.02,39.293 13.5,0 22.23,-2.078 27.63,-3.543 1.87,-0.414 2.91,-1.035 2.91,-2.488 0,-2.699 -0.82,-8.731 -0.82,-24.945 0,-4.586 -0.63,-6.219 -2.29,-6.219 -1.46,0 -2.09,1.23 -2.09,3.738 0,1.859 -1.03,8.309 -5.4,13.707 -3.12,3.957 -9.15,10.18 -22.63,10.18 -15.39,0 -24.74,-8.938 -24.74,-21.406 0,-9.575 4.78,-16.825 22.03,-29.922 l 5.81,-4.367 c 24.93,-19.333 34.08,-33.262 34.08,-53.012 0,-12.051 -4.58,-26.371 -19.53,-36.145 -10.4,-6.648 -22.02,-8.527 -33.04,-8.527 -12.06,0 -21.41,1.461 -30.35,5.41"
         style="fill:#1b678d;fill-opacity:1;fill-rule:evenodd;stroke:none"
         id="path28" />
      <path
         d="M 157.746,817.27 C 42.4297,826.078 7.37109,892.395 45.9961,967.051 c 20.8086,40.199 52.5898,83.459 14.7148,123.419 -1.0273,1.32 -0.1718,2.16 1.4102,1.44 C 148.391,1057.52 103.496,988.082 88.7734,959.336 59.7383,902.637 78.2617,833.797 157.746,818.988 c 1.754,-0.39 1.621,-1.863 0,-1.718"
         style="fill:#d8642d;fill-opacity:1;fill-rule:evenodd;stroke:none"
         id="path30" />
      <path
         d="m 173.133,880.52 19.527,241.05 -45.734,0.07 24.597,-241.12 c 0.122,-1.582 1.508,-1.532 1.61,0"
         style="fill:#1b678d;fill-opacity:1;fill-rule:evenodd;stroke:none"
         id="path32" />
      <path
         d="m 225.348,1001.86 c 28.468,-22.411 74.918,-146.946 -38.453,-182.848 -1.84,-0.469 -1.692,-1.871 0.027,-1.688 180.348,22.528 118.371,151.946 39.941,186.056 -2.09,1.01 -3.074,-0.3 -1.515,-1.52"
         style="fill:#eeab1b;fill-opacity:1;fill-rule:evenodd;stroke:none"
         id="path34" />
    </g>
  </g>
</svg>
