<?xml version="1.0" encoding="UTF-8" standalone="no"?>
<!-- Created with Inkscape (http://www.inkscape.org/) -->

<svg
   version="1.1"
   id="svg2"
   width="1046.0667"
   height="458.57333"
   viewBox="0 0 1046.0667 458.57333"
   sodipodi:docname="reckitt-benckiser-seeklogo.eps"
   xmlns:inkscape="http://www.inkscape.org/namespaces/inkscape"
   xmlns:sodipodi="http://sodipodi.sourceforge.net/DTD/sodipodi-0.dtd"
   xmlns="http://www.w3.org/2000/svg"
   xmlns:svg="http://www.w3.org/2000/svg">
  <defs
     id="defs6" />
  <sodipodi:namedview
     id="namedview4"
     pagecolor="#ffffff"
     bordercolor="#000000"
     borderopacity="0.25"
     inkscape:showpageshadow="2"
     inkscape:pageopacity="0.0"
     inkscape:pagecheckerboard="0"
     inkscape:deskcolor="#d1d1d1" />
  <g
     id="g8"
     inkscape:groupmode="layer"
     inkscape:label="ink_ext_XXXXXX"
     transform="matrix(1.3333333,0,0,-1.3333333,0,458.57333)">
    <g
       id="g10"
       transform="scale(0.1)">
      <path
         d="m 5073.28,1790.93 h 195.85 v -656.68 h -195.85 v 656.68"
         style="fill:#3e5976;fill-opacity:1;fill-rule:nonzero;stroke:none"
         id="path12" />
      <path
         d="m 7310.17,297.531 c 35.77,294.828 -118.79,394.348 -302.82,394.348 -173.5,0 -348.4,-106.391 -348.4,-344.16 C 6658.95,126.711 6797.83,0 7039.89,0 c 76.71,0 157.04,21.1914 204.77,41.2422 l 22.13,141.1988 c -57.78,-23.453 -125.05,-52.921 -200.22,-52.921 -115.84,0 -189.15,63.109 -200.2,168.011 z m -183.82,110.09 h -267.57 c 8.81,97.918 53.81,165.789 146.63,165.789 86.78,0 127.24,-76.39 120.94,-165.789"
         style="fill:#3e5976;fill-opacity:1;fill-rule:nonzero;stroke:none"
         id="path14" />
      <path
         d="m 3630.32,1414.37 c 35.75,294.82 -118.74,394.4 -302.86,394.4 -173.47,0 -348.39,-106.44 -348.39,-344.18 0,-221.04 138.87,-347.75 380.99,-347.75 76.73,0 156.98,21.22 204.71,41.25 l 22.08,141.14 c -57.73,-23.41 -124.98,-52.79 -200.22,-52.79 -115.73,0 -189.09,63.04 -200.15,167.93 z m -183.85,110.12 h -267.58 c 8.81,97.91 53.76,165.73 146.68,165.73 86.82,0 127.22,-76.35 120.9,-165.73"
         style="fill:#3e5976;fill-opacity:1;fill-rule:nonzero;stroke:none"
         id="path16" />
      <path
         d="m 3652.69,297.531 c 35.82,294.828 -118.73,394.348 -302.85,394.348 -173.47,0 -348.34,-106.391 -348.34,-344.16 C 3001.5,126.711 3140.32,0 3382.44,0 c 76.68,0 156.98,21.1914 204.71,41.2422 l 22.13,141.1988 c -57.78,-23.453 -125.02,-52.921 -200.27,-52.921 -115.74,0 -189.09,63.109 -200.15,168.011 z m -183.84,110.09 h -267.58 c 8.81,97.918 53.81,165.789 146.68,165.789 86.81,0 127.22,-76.39 120.9,-165.789"
         style="fill:#3e5976;fill-opacity:1;fill-rule:nonzero;stroke:none"
         id="path18" />
      <path
         d="M 5987.03,953.859 V 725.641 c -65.81,64.918 -125.14,106.218 -213.34,140.031 l 213.34,88.187"
         style="fill:#3e5976;fill-opacity:1;fill-rule:nonzero;stroke:none"
         id="path20" />
      <path
         d="M 5791.24,674.039 H 5987 V 17.3906 H 5791.24 V 674.039"
         style="fill:#3e5976;fill-opacity:1;fill-rule:nonzero;stroke:none"
         id="path22" />
      <path
         d="m 4952.06,537.43 c -40.25,13.379 -82.25,20.922 -122.17,20.922 -113.41,0 -183.17,-73.411 -183.17,-205.821 0,-164.109 94.6,-222.332 175.52,-222.332 76.22,0 122.74,18.762 157.17,34.192 L 4957.65,27.0508 C 4927.3,16.5898 4866.59,0 4782.94,0 4578.9,0 4436.55,141.422 4436.55,343.91 c 0,218.09 142.25,348.02 380.45,348.02 87.51,0 138.27,-16.211 173.09,-31.059 L 4952.06,537.43"
         style="fill:#3e5976;fill-opacity:1;fill-rule:nonzero;stroke:none"
         id="path24" />
      <path
         d="m 4234.19,1654.27 c -40.28,13.41 -82.25,20.93 -122.15,20.93 -113.43,0 -183.22,-73.39 -183.22,-205.74 0,-164.17 94.6,-222.43 175.57,-222.43 76.17,0 122.71,18.76 157.15,34.28 l -21.76,-137.38 c -30.33,-10.49 -91.06,-27.09 -174.68,-27.09 -204.04,0 -346.43,141.44 -346.43,343.91 0,218.12 142.28,348.02 380.45,348.02 87.52,0 138.28,-16.22 173.04,-31.06 l -37.97,-123.44"
         style="fill:#3e5976;fill-opacity:1;fill-rule:nonzero;stroke:none"
         id="path26" />
      <path
         d="m 4356.14,485.078 c 0,139.172 -75.63,206.82 -201.12,206.82 -90.49,0 -167.34,-45.078 -219.52,-108.378 v 90.55 H 3739.7 V 17.3984 h 195.8 V 359.781 c 0,99.348 42.56,162.84 127.76,162.84 73.16,0 97.25,-51.379 97.25,-126.973 V 17.3984 h 195.63 V 485.078"
         style="fill:#3e5976;fill-opacity:1;fill-rule:nonzero;stroke:none"
         id="path28" />
      <path
         d="m 6137.74,1391.51 v 275.98 h 153.87 l 19.54,123.38 h -173.41 v 279.78 l -195.79,-80.6 v -199.18 h -276.5 v 279.78 l -195.8,-80.6 v -199.18 h -108.54 v -123.38 h 108.54 v -331.88 c 0,-153.22 65.11,-218.77 213.01,-218.77 35.92,0 93.87,8.19 125.6,23.41 l 18.71,118 c -21.44,-6.34 -43.41,-10.05 -65.49,-10.05 -53.46,0 -96.03,31.65 -96.03,143.31 v 275.98 h 276.5 v -331.88 c 0,-153.22 65.08,-218.77 212.93,-218.77 36,0 93.95,8.19 125.6,23.41 l 18.73,118 c -21.38,-6.34 -43.41,-10.05 -65.49,-10.05 -53.49,0 -95.98,31.65 -95.98,143.31"
         style="fill:#3e5976;fill-opacity:1;fill-rule:nonzero;stroke:none"
         id="path30" />
      <path
         d="m 6418.51,412.988 c -81.22,29.793 -144.98,41.981 -144.98,86.633 0,35.277 29,58.41 97.14,58.41 72.35,0 130.71,-22.082 175.09,-39.461 l 38.35,123.489 c -34.35,18.273 -106.71,49.82 -220.68,49.82 -159.42,0 -263.83,-78.5 -263.83,-201.719 0,-100.199 59.46,-151.68 157.99,-194.949 100.02,-44.742 167.68,-56.902 167.68,-101.57 0,-39.25 -42.03,-59.571 -115.99,-59.571 -77.64,0 -145.35,35.969 -173.24,53.75 L 6091.68,49.9688 C 6138.36,25.6797 6213.26,0 6320.91,0 c 173.93,0 279.77,73.1211 279.77,211.23 0,111.032 -70.52,158.442 -182.17,201.758"
         style="fill:#3e5976;fill-opacity:1;fill-rule:nonzero;stroke:none"
         id="path32" />
      <path
         d="m 7791.61,516.699 53.87,167.723 c -18.28,4.777 -38.66,7.476 -62.01,7.476 -67.19,0 -158.82,-53.347 -190.8,-124.328 v 106.5 H 7397.16 V 17.3984 h 195.51 V 380.211 c 0,93.598 106.18,161.41 198.94,136.488"
         style="fill:#3e5976;fill-opacity:1;fill-rule:nonzero;stroke:none"
         id="path34" />
      <path
         d="m 2993.58,1134.25 -264.44,383.94 c 132.73,30 213.33,146.22 213.33,263.2 0,229.72 -232.37,264.64 -370.74,264.64 h -282.99 v -911.78 h 211.41 v 383.48 l 264.26,-383.48 z m -437.32,487.48 h -56.11 v 283.16 h 61.49 c 114.57,0 175.2,-47.45 175.2,-137.5 0,-93.9 -64.17,-145.66 -180.58,-145.66"
         style="fill:#3e5976;fill-opacity:1;fill-rule:nonzero;stroke:none"
         id="path36" />
      <path
         d="M 2288.76,929.211 V 17.3984 h 288.12 c 239.64,0 361.18,89.1716 361.18,245.1326 0,134.168 -70.84,218.739 -205.46,234.09 101.35,28.32 167.11,105.598 167.11,211.5 0,139.168 -107.22,221.09 -318.77,221.09 z M 2496.64,788.77 h 52.03 c 121.54,0 147,-65.329 147,-119.95 0,-82.3 -51.35,-124 -152.87,-124 h -46.16 z m 66.79,-631.872 h -66.79 v 261.614 h 75.87 c 126.11,0 152.58,-71.25 152.58,-130.903 0,-48.839 -21.01,-130.711 -161.66,-130.711"
         style="fill:#3e5976;fill-opacity:1;fill-rule:nonzero;stroke:none"
         id="path38" />
      <path
         d="M 5269.1,2070.68 V 1842.5 c -65.87,64.92 -125.22,106.22 -213.39,139.98 l 213.39,88.2"
         style="fill:#3e5976;fill-opacity:1;fill-rule:nonzero;stroke:none"
         id="path40" />
      <path
         d="m 5003.42,1134.25 -264.1,390.91 249.44,265.74 H 4768.24 L 4557.5,1539.81 v 530.87 l -195.79,-80.66 v -855.77 h 195.79 v 197.12 l 54.03,57.49 169.82,-254.61 h 222.07"
         style="fill:#3e5976;fill-opacity:1;fill-rule:nonzero;stroke:none"
         id="path42" />
      <path
         d="M 5714.99,17.3984 5450.94,408.262 5700.31,674.07 H 5479.79 L 5269.05,422.969 V 953.891 L 5073.25,873.18 V 17.3984 h 195.8 V 214.52 l 54.02,57.492 169.83,-254.6136 h 222.09"
         style="fill:#3e5976;fill-opacity:1;fill-rule:nonzero;stroke:none"
         id="path44" />
      <path
         d="M 0,3439.28 C 468.402,3100.59 796.148,2745.81 930.238,2269.44 l 0.055,-0.11 c 19.914,-70.92 35.594,-144.52 46.754,-221.14 v -0.06 c 35.273,-241.56 26.243,-513.4 -32.813,-826.56 L 2442.18,2898.25 0,3439.28"
         style="fill:#ffffff;fill-opacity:1;fill-rule:nonzero;stroke:none"
         id="path46" />
      <path
         d="m 1813.82,2605.7 c -82.47,0 -171.36,-91.44 -196.28,-195.66 -25.57,-107 30.27,-195.79 112.82,-195.79 43.67,0 87.67,25.24 122.27,65.41 l 0.38,0.35 c 30.63,35.65 53.87,79.33 63.33,130.03 20.33,108.03 -24.03,195.66 -102.52,195.66"
         style="fill:#eb048d;fill-opacity:1;fill-rule:nonzero;stroke:none"
         id="path48" />
      <path
         d="m 1671.24,2035.34 c -133.68,5.71 -282.47,113.74 -235.9,377.08 L 1555.89,3094.54 0,3439.23 C 468.402,3100.56 796.176,2745.81 930.293,2269.39 l 82.757,468.13 h 188.14 l -19.64,-111.34 c 57.57,82.48 134.68,130.64 241.22,124.45 l -28.46,-160.88 c -106.54,6.22 -225.12,-33.21 -247.31,-159.03 l -67.7,-382.59 H 977.047 c 35.333,-241.63 26.243,-513.48 -32.813,-826.56 l 727.006,813.77"
         style="fill:#eb048d;fill-opacity:1;fill-rule:nonzero;stroke:none"
         id="path50" />
      <path
         d="m 1737.09,3054.43 -72.71,-411.24 c 74.08,76.49 154.9,107.44 237.2,107.44 118.63,0 209.31,-78.04 206.47,-226.97 l 334.13,374.59 -705.09,156.18"
         style="fill:#eb048d;fill-opacity:1;fill-rule:nonzero;stroke:none"
         id="path52" />
    </g>
  </g>
</svg>
