<?xml version="1.0" encoding="UTF-8" standalone="no"?>
<!-- Created with Inkscape (http://www.inkscape.org/) -->

<svg
   version="1.1"
   id="svg2"
   width="578.93335"
   height="300.65332"
   viewBox="0 0 578.93335 300.65332"
   sodipodi:docname="roche-seeklogo.eps"
   xmlns:inkscape="http://www.inkscape.org/namespaces/inkscape"
   xmlns:sodipodi="http://sodipodi.sourceforge.net/DTD/sodipodi-0.dtd"
   xmlns="http://www.w3.org/2000/svg"
   xmlns:svg="http://www.w3.org/2000/svg">
  <defs
     id="defs6" />
  <sodipodi:namedview
     id="namedview4"
     pagecolor="#ffffff"
     bordercolor="#000000"
     borderopacity="0.25"
     inkscape:showpageshadow="2"
     inkscape:pageopacity="0.0"
     inkscape:pagecheckerboard="0"
     inkscape:deskcolor="#d1d1d1" />
  <g
     id="g8"
     inkscape:groupmode="layer"
     inkscape:label="ink_ext_XXXXXX"
     transform="matrix(1.3333333,0,0,-1.3333333,0,300.65333)">
    <g
       id="g10"
       transform="scale(0.1)">
      <path
         d="m 2937.2,1390.03 c -27.31,20.26 -70.01,32.62 -111.62,31.93 -45.05,-0.54 -88.22,-15.06 -118.2,-38.91 v 284.56 H 2566.53 V 739.559 h 140.85 v 484.331 c 0,33.74 28.35,70.88 80.91,73.2 23.23,0.93 55.74,-9.07 72.07,-33.59 17.52,-26.09 16.44,-60.59 16.44,-98.48 l -0.15,-425.461 h 140.78 v 430.921 c 0,127 -16.55,172.26 -80.23,219.55"
         style="fill:#186dbf;fill-opacity:1;fill-rule:nonzero;stroke:none"
         id="path12" />
      <path
         d="m 1928.02,1180.94 c -19.94,198.4 -132.61,240.91 -225.01,240.91 -130.99,0 -210.9,-83.3 -225.24,-240.69 -1.08,-12.57 -3.18,-35.68 -3.9,-109.7 -0.47,-54.04 2.97,-98.37 3.65,-109.53 9.11,-146.91 93.34,-237.442 225.49,-237.442 132.06,0 216.23,92.153 225.41,237.512 0.6,10.41 3.64,55.42 3.64,109.46 0,24.38 -2.17,90.77 -4.04,109.48 z m -136.19,-109.48 c 0,-90.929 -2.86,-116.46 -3.58,-124.37 -4.8,-50.32 -26.3,-103.75 -85,-103.75 -58.62,0 -82.46,57 -84.96,106.242 -0.07,0.289 -3.64,30.949 -3.64,121.878 0,90.92 3.57,128.81 3.64,129.14 0.72,51.22 27.28,102.49 84.96,102.49 57.77,0 84.32,-51.27 84.93,-102.02 0.07,-0.8 3.65,-38.69 3.65,-129.61"
         style="fill:#186dbf;fill-opacity:1;fill-rule:nonzero;stroke:none"
         id="path14" />
      <path
         d="m 3426.27,969.051 c 0,0 0.25,-10.332 -1.22,-22.981 -3.87,-32.761 -16.94,-102.73 -85.51,-102.73 -58.38,0 -80.66,53.129 -84.6,105.922 -0.87,15.047 -3.58,31.738 -3.44,88.818 h 313.92 c 0,0 0.54,46.67 -0.32,74.78 -0.44,11.01 -1.02,29.43 -3.65,68.16 -4.26,59.46 -26.56,124.55 -60.54,166.53 -39.52,48.7 -95.27,74.3 -161.37,74.3 -126.76,0 -206.04,-82.43 -221.65,-240.76 -1.31,-14.12 -3.72,-33.85 -3.72,-109.63 0,-54.04 2.96,-99.128 3.57,-109.53 8.6,-144.489 94.03,-237.442 221.8,-237.442 127.66,0 213.06,90.532 221.91,244.563 z m -173.82,185.889 c 1.01,30.74 1.01,37.17 1.62,46.13 4.05,55.59 28.79,101.54 85.79,102.02 67.63,0.53 83.41,-65.68 85.79,-102.35 1.34,-19.25 2.72,-32.15 2.57,-45.8 h -175.77"
         style="fill:#186dbf;fill-opacity:1;fill-rule:nonzero;stroke:none"
         id="path16" />
      <path
         d="M 3372.09,2254.9 H 973.313 L 0,1124.67 973.418,1.62891 H 3372.01 L 4342,1120.91 Z M 1028.61,2141.22 H 3316.75 L 4191.69,1117.66 3316.96,108.082 H 1028.54 L 150.234,1121.09 1028.61,2141.22"
         style="fill:#186dbf;fill-opacity:1;fill-rule:nonzero;stroke:none"
         id="path18" />
      <path
         d="m 1390.42,796.922 c 0,-0.082 -14.52,227.898 -14.52,227.898 -6.28,101.95 -32.83,161.87 -85.5,192.69 38.08,22.9 87.28,79.58 86.91,197.92 -0.72,180.14 -112.59,243.32 -244.34,244.8 H 917.82 V 739.559 h 138.97 l 0.08,421.121 h 77.33 c 44.73,0 95.19,-39.12 102.81,-148.93 l 14.52,-215.59 c 1.09,-30.531 6.9,-56.68 6.9,-56.68 h 139.04 c 0,0 -5.96,25.29 -7.05,57.442 z m -333.55,744.608 h 66.61 c 72.46,0 111.73,-38.44 113.53,-106.99 0.14,-5.06 0.76,-10.8 0.76,-21.54 0,-12.43 -0.22,-16.75 -0.76,-21.64 -3.97,-40.71 -21.89,-111.9 -106.71,-111.9 h -73.43 v 262.07"
         style="fill:#186dbf;fill-opacity:1;fill-rule:nonzero;stroke:none"
         id="path20" />
      <path
         d="m 2339.28,975.441 c -0.54,-10.261 -1.15,-19.441 -1.69,-25.859 -3.98,-51.48 -22.15,-106.242 -85.04,-106.242 -58.59,0 -81.82,59.351 -86.09,102.992 -2.55,26.438 -1.95,46.957 -2.49,125.128 -0.61,90.92 2.32,114.29 3.58,129.14 4.95,57.44 27.31,102.01 85,102.49 59.35,0.38 84.34,-51.27 85.04,-102.02 0,-0.47 1.15,-12.75 2.17,-39.71 h 139.21 c -0.4,9.25 -0.8,17.03 -1.16,21.61 -15.86,192.32 -133.01,238.88 -225.48,238.88 -130.98,0 -210.82,-83.3 -225.23,-240.69 -1.08,-12.57 -3.11,-35.68 -3.83,-109.7 -0.47,-54.04 2.97,-98.37 3.65,-109.53 9.04,-146.91 93.28,-237.039 225.41,-237.442 136.88,-0.468 212.34,82.981 225.48,237.512 0.47,5.672 1.23,9.469 0.76,13.441 h -139.29"
         style="fill:#186dbf;fill-opacity:1;fill-rule:nonzero;stroke:none"
         id="path22" />
    </g>
  </g>
</svg>
