<?xml version="1.0" encoding="UTF-8" standalone="no"?>
<!-- Created with Inkscape (http://www.inkscape.org/) -->

<svg
   version="1.1"
   id="svg2"
   width="377.94666"
   height="80.599998"
   viewBox="0 0 377.94666 80.599998"
   sodipodi:docname="sanofi-seeklogo.eps"
   xmlns:inkscape="http://www.inkscape.org/namespaces/inkscape"
   xmlns:sodipodi="http://sodipodi.sourceforge.net/DTD/sodipodi-0.dtd"
   xmlns="http://www.w3.org/2000/svg"
   xmlns:svg="http://www.w3.org/2000/svg">
  <defs
     id="defs6" />
  <sodipodi:namedview
     id="namedview4"
     pagecolor="#ffffff"
     bordercolor="#000000"
     borderopacity="0.25"
     inkscape:showpageshadow="2"
     inkscape:pageopacity="0.0"
     inkscape:pagecheckerboard="0"
     inkscape:deskcolor="#d1d1d1" />
  <g
     id="g8"
     inkscape:groupmode="layer"
     inkscape:label="ink_ext_XXXXXX"
     transform="matrix(1.3333333,0,0,-1.3333333,0,80.6)">
    <g
       id="g10"
       transform="scale(0.1)">
      <path
         d="m 1972.13,499.164 h 57.55 V 105.398 h -57.55 v 393.766"
         style="fill:#4b5ab2;fill-opacity:1;fill-rule:evenodd;stroke:none"
         id="path12" />
      <path
         d="m 1347.13,502.652 c 111.62,0 200.12,-88.453 200.12,-201.246 0,-109.933 -90.25,-199.57 -200.12,-199.57 -110.56,0 -200.75,89.637 -200.75,199.57 0,112.235 88.52,201.246 200.75,201.246 z m -2.36,-53.504 c -78.13,0 -140.28,-65.636 -140.28,-148.3 0,-80.977 62.78,-145.426 142.64,-145.426 79.24,0 141.96,64.449 141.96,145.426 0,84.961 -61.59,148.3 -144.32,148.3"
         style="fill:#4b5ab2;fill-opacity:1;fill-rule:evenodd;stroke:none"
         id="path14" />
      <path
         d="m 134.629,454.656 c -36.0626,0 -67.3829,-24.832 -62.9884,-62.215 1.8867,-15.91 9.8321,-25.949 25.25,-36.418 4.2574,-2.859 13.1834,-6.414 24.4144,-10.394 11.297,-4.043 25.043,-8.649 39.066,-13.598 28.176,-9.902 57.129,-21.343 69.399,-32.929 20.996,-19.739 33.414,-45.059 33.414,-75.262 0,-74.348 -59.848,-124.0275 -130.368,-124.0275 C 61.5234,99.8125 1.8125,148.855 0,220.906 h 55.5273 c 7.1836,-49.234 38.2227,-71.07 77.2887,-71.07 36.204,0 73.516,22.809 73.516,65.426 0,22.804 -11.156,40.176 -31.738,51.476 -5.438,3.008 -13.387,6.133 -22.664,9.348 -9.348,3.277 -20.028,6.695 -31.047,10.254 -21.8986,7.183 -44.7814,15.066 -59.426,23.578 -28.1132,16.531 -46.1797,46.105 -46.1797,80.145 0,66.269 50.7149,114.609 122.1407,114.609 56.289,0 114.121,-43.734 117.676,-107 h -56.5 c -2.93,34.18 -31.875,56.984 -63.965,56.984"
         style="fill:#4b5ab2;fill-opacity:1;fill-rule:evenodd;stroke:none"
         id="path16" />
      <path
         d="m 1681.67,499.098 186.05,0.066 V 446.355 H 1700.93 V 318.496 h 166.79 V 265.762 H 1700.93 V 105.398 h -57.48 v 355.465 c 0,21.211 17.09,38.235 38.22,38.235"
         style="fill:#4b5ab2;fill-opacity:1;fill-rule:evenodd;stroke:none"
         id="path18" />
      <path
         d="M 803.785,407.363 803.5,105.398 h -57.543 l 0.211,357.356 c 0,22.043 17.855,39.898 39.895,39.898 14.304,0 26.015,-6.004 33.972,-18.906 57.028,-92.496 162,-267.293 173.371,-286.48 l 0.356,301.898 h 57.538 l -0.21,-357.348 c 0,-22.043 -17.85,-39.98 -39.89,-39.98 -14.302,0 -26.02,6.008 -33.973,18.984 -57.129,92.489 -162.075,267.364 -173.442,286.543"
         style="fill:#4b5ab2;fill-opacity:1;fill-rule:evenodd;stroke:none"
         id="path20" />
      <path
         d="M 410.367,216.316 369.633,105.398 H 309.57 l 141.325,372.563 c 5.371,14.437 20.089,24.691 36.41,24.691 16.254,0 30.976,-10.254 36.343,-24.691 L 664.973,105.398 H 604.91 l -40.668,110.989 z m 76.938,210.442 -57.965,-158.977 115.996,-0.066 z"
         style="fill:#4b5ab2;fill-opacity:1;fill-rule:evenodd;stroke:none"
         id="path22" />
      <path
         d="m 2820.62,393.629 c -97.44,143.133 -206.53,17.434 -316.19,32.992 -108.74,15.414 -112.52,164.547 21.34,177.172 3.21,0.352 6.49,0.559 9.77,0.699 133.79,-1.254 246.58,-89.566 285.08,-210.863"
         style="fill:#cba569;fill-opacity:1;fill-rule:nonzero;stroke:none"
         id="path24" />
      <path
         d="m 2823.29,385.117 c 7.45,-26.301 11.35,-54.133 11.35,-82.871 C 2834.64,135.391 2699.32,0 2532.4,0 c -73.37,0 -140.49,26.2227 -192.8,69.6094 20.58,-8.2227 44.99,-11.6406 65.84,-11.711 273.8,-1.4648 156.89,362.5786 417.85,327.2186"
         style="fill:#4b5ab2;fill-opacity:1;fill-rule:evenodd;stroke:none"
         id="path26" />
      <path
         d="m 2421.98,94.5898 c -37.88,-23.1562 -98.01,-16.25 -139.79,40.9372 -9.27,12.696 -16.95,25.528 -23.44,38.379 -18.33,38.992 -28.6,82.578 -28.6,128.543 0,12.207 0.7,24.278 2.17,36.071 65.92,-88.872 141.81,-86.149 190.01,-115.024 21.48,-13.398 35.71,-37.187 35.71,-64.316 0,-27.137 -14.58,-51.336 -36.06,-64.5902"
         style="fill:#aabc0d;fill-opacity:1;fill-rule:evenodd;stroke:none"
         id="path28" />
    </g>
  </g>
</svg>
