<?xml version="1.0" encoding="UTF-8" standalone="no"?>
<!-- Created with Inkscape (http://www.inkscape.org/) -->

<svg
   version="1.1"
   id="svg2"
   width="258.66666"
   height="258.66666"
   viewBox="0 0 258.66666 258.66666"
   sodipodi:docname="teva-seeklogo.eps"
   xmlns:inkscape="http://www.inkscape.org/namespaces/inkscape"
   xmlns:sodipodi="http://sodipodi.sourceforge.net/DTD/sodipodi-0.dtd"
   xmlns="http://www.w3.org/2000/svg"
   xmlns:svg="http://www.w3.org/2000/svg">
  <defs
     id="defs6" />
  <sodipodi:namedview
     id="namedview4"
     pagecolor="#ffffff"
     bordercolor="#000000"
     borderopacity="0.25"
     inkscape:showpageshadow="2"
     inkscape:pageopacity="0.0"
     inkscape:pagecheckerboard="0"
     inkscape:deskcolor="#d1d1d1" />
  <g
     id="g8"
     inkscape:groupmode="layer"
     inkscape:label="ink_ext_XXXXXX"
     transform="matrix(1.3333333,0,0,-1.3333333,0,258.66667)">
    <g
       id="g10"
       transform="scale(0.1)">
      <path
         d="M 2.59766,1933.23 H 1930.16 V 5.66797 H 2.59766 V 1933.23"
         style="fill:#ffffff;fill-opacity:1;fill-rule:evenodd;stroke:none"
         id="path12" />
      <path
         d="M 1845.12,814.152 V 1305.5 H 87.6367 V 1109.47 H 220.867 V 814.152 H 1845.12"
         style="fill:#00a888;fill-opacity:1;fill-rule:evenodd;stroke:none"
         id="path14" />
      <path
         d="M 1010.93,1254.59 V 865.07 h 277.5 l 177.36,389.52 h -247.8 V 960.113 h -51.76 v 294.477 h -155.3"
         style="fill:#ffffff;fill-opacity:1;fill-rule:evenodd;stroke:none"
         id="path16" />
      <path
         d="m 1524.34,1254.59 h 270.71 V 865.07 h -155.3 v 296.17 h -51.76 V 865.07 h -246.1 l 182.45,389.52"
         style="fill:#ffffff;fill-opacity:1;fill-rule:evenodd;stroke:none"
         id="path18" />
      <path
         d="m 142.797,1256.28 v -95.04 H 281.121 V 865.07 h 157.844 v 296.17 h 142.566 v 95.04 H 142.797"
         style="fill:#ffffff;fill-opacity:1;fill-rule:evenodd;stroke:none"
         id="path20" />
      <path
         d="m 636.691,1256.28 h 320.778 v -95.04 H 738.527 v -51.77 h 218.942 v -94.19 H 738.527 V 962.664 H 957.469 V 865.07 H 495.82 v 244.4 h 140.871 v 146.81"
         style="fill:#ffffff;fill-opacity:1;fill-rule:evenodd;stroke:none"
         id="path22" />
      <path
         d="m 245.48,684.316 c 0,8.485 0,16.122 -0.847,23.762 -7.637,0 -17.82,0 -24.61,-0.851 0.844,0.851 0.844,2.55 0.844,3.394 0,1.699 0,2.547 -0.844,3.395 10.184,0 20.364,0 29.7,0 10.183,0 20.367,0 29.703,0 0,-0.848 0,-1.696 0,-3.395 0,-0.844 0,-2.543 0,-3.394 -5.942,0.851 -16.125,0.851 -24.613,0.851 0,-7.64 0,-15.277 0,-23.762 v -19.519 c 0,-10.184 0,-20.367 0.851,-29.699 -1.699,0 -3.394,0 -5.941,0 -1.7,0 -3.395,0 -5.09,0 0,9.332 0.847,19.515 0.847,29.699 v 19.519"
         style="fill:#231f20;fill-opacity:1;fill-rule:evenodd;stroke:none"
         id="path24" />
      <path
         d="m 293.004,684.316 c 0,10.184 0,20.368 -0.848,29.7 7.637,0 14.426,0 21.215,0 6.789,0 13.578,0 20.363,0 0,-0.848 0,-1.696 0,-3.395 0,-0.844 0,-1.695 0,-3.394 -9.332,0.851 -15.273,1.699 -30.546,1.699 0,-5.09 0,-9.336 0,-14.426 0,-5.941 0,-12.73 0,-15.277 13.578,0 21.214,0.847 28.003,0.847 0,-0.847 -0.851,-2.543 -0.851,-3.39 0,-0.848 0.851,-2.547 0.851,-3.395 -8.488,0.848 -22.914,0.848 -28.003,0.848 0,-2.547 0,-5.09 0,-16.973 0,-8.484 0,-14.426 0,-16.972 10.183,0 23.761,0 31.394,1.699 -0.848,-0.852 -0.848,-2.547 -0.848,-3.399 0,-1.695 0,-2.543 0.848,-3.39 -6.789,0 -14.422,0 -21.211,0 -6.789,0 -13.578,0 -21.215,0 0.848,9.332 0.848,19.515 0.848,29.699 v 19.519"
         style="fill:#231f20;fill-opacity:1;fill-rule:evenodd;stroke:none"
         id="path26" />
      <path
         d="m 341.371,714.016 c 2.547,0 4.246,0 6.789,0 1.699,0 3.399,0 5.942,0 6.789,-20.368 16.125,-44.125 26.308,-67.887 8.485,18.668 21.215,53.461 25.461,67.887 1.695,0 3.391,0 4.238,0 1.7,0 3.399,0 5.094,0 -12.73,-26.305 -23.762,-52.614 -33.945,-78.918 -0.848,0 -2.543,0 -3.395,0 -1.695,0 -2.547,0 -4.242,0 -6.789,18.668 -20.367,52.613 -32.25,78.918"
         style="fill:#231f20;fill-opacity:1;fill-rule:evenodd;stroke:none"
         id="path28" />
      <path
         d="m 450.844,715.715 c 11.031,-26.305 28.855,-68.738 34.797,-80.617 -2.551,0 -4.246,0 -5.942,0 -2.547,0 -4.246,0 -6.789,0 -1.699,7.636 -7.637,20.367 -11.883,30.547 -5.089,0 -10.183,0 -14.425,0 -5.094,0 -10.184,0 -14.426,0 -5.094,-11.879 -9.336,-23.758 -11.035,-30.547 -1.692,0 -3.391,0 -4.243,0 -1.695,0 -3.39,0 -4.238,0 11.879,26.304 23.758,53.461 35.637,80.617 z m -4.242,-15.277 -11.883,-29.7 c 3.398,0 7.64,0 11.883,0 4.242,0 8.484,0 12.73,0 l -12.73,29.7"
         style="fill:#231f20;fill-opacity:1;fill-rule:evenodd;stroke:none"
         id="path30" />
      <path
         d="m 530.613,684.316 c 0,10.184 0,20.368 -0.847,29.7 3.394,0 7.636,0 11.031,0 4.246,0 11.035,0 14.426,0 6.789,0 25.461,0 25.461,-18.668 0,-20.368 -20.368,-24.61 -31.399,-24.61 -3.394,0 -5.941,0 -9.336,0 v -5.941 c 0,-10.184 0.848,-20.367 0.848,-29.699 -1.695,0 -3.395,0 -5.09,0 -1.699,0 -4.242,0 -5.941,0 0.847,9.332 0.847,19.515 0.847,29.699 z m 9.336,-8.484 c 2.547,-0.852 5.942,-0.852 8.485,-0.852 9.336,0 21.214,3.395 21.214,19.52 0,12.727 -6.789,15.277 -18.668,15.277 h -11.031 v -33.945"
         style="fill:#231f20;fill-opacity:1;fill-rule:evenodd;stroke:none"
         id="path32" />
      <path
         d="m 652.816,684.316 c 0,10.184 -0.847,20.368 -0.847,29.7 1.695,0 3.39,0 5.09,0 2.546,0 4.242,0 5.937,0 -0.848,-9.332 -0.848,-19.516 -0.848,-29.7 v -19.519 c 0,-10.184 0,-20.367 0.848,-29.699 -1.695,0 -3.391,0 -5.937,0 -1.7,0 -3.395,0 -5.09,0 0,9.332 0.847,19.515 0.847,29.699 v 10.183 c -8.488,0 -16.125,0 -24.613,0 -7.633,0 -16.121,0 -23.758,0 v -10.183 c 0,-10.184 0,-20.367 0.848,-29.699 -1.699,0 -3.395,0 -5.941,0 -1.696,0 -3.395,0 -5.09,0 0,9.332 0.847,19.515 0.847,29.699 v 19.519 c 0,10.184 -0.847,20.368 -0.847,29.7 1.695,0 3.394,0 5.09,0 2.546,0 4.242,0 5.941,0 -0.848,-9.332 -0.848,-19.516 -0.848,-29.7 v -3.394 c 7.637,-0.852 16.125,-0.852 23.758,-0.852 8.488,0 16.125,0 24.613,0.852 v 3.394"
         style="fill:#231f20;fill-opacity:1;fill-rule:evenodd;stroke:none"
         id="path34" />
      <path
         d="m 713.918,715.715 c 11.031,-26.305 28,-68.738 34.789,-80.617 -2.543,0 -4.242,0 -6.789,0 -1.695,0 -3.391,0 -5.941,0 -1.696,7.636 -7.637,20.367 -11.879,30.547 -5.09,0 -10.18,0 -15.274,0 -4.242,0 -9.336,0 -13.578,0 -5.094,-11.879 -9.336,-23.758 -11.031,-30.547 -1.699,0 -3.395,0 -4.242,0 -1.7,0 -3.399,0 -4.246,0 11.882,26.304 23.761,53.461 35.644,80.617 z m -4.246,-15.277 -12.731,-29.7 c 4.247,0 8.489,0 12.731,0 4.246,0 8.488,0 12.726,0 l -12.726,29.7"
         style="fill:#231f20;fill-opacity:1;fill-rule:evenodd;stroke:none"
         id="path36" />
      <path
         d="m 761.438,684.316 c 0,10.184 0,20.368 -0.848,29.7 4.242,0 8.484,0 13.578,0 4.242,0 8.484,0 12.73,0 13.579,0 23.758,-4.239 23.758,-17.817 0,-15.277 -14.426,-21.219 -22.91,-22.066 5.09,-6.789 24.609,-31.399 31.399,-39.035 -2.547,0 -5.09,0 -6.79,0 -2.546,0 -5.093,0 -6.789,0 -5.089,6.789 -20.367,28.004 -29.703,38.187 h -5.09 v -8.488 c 0,-10.184 0.848,-20.367 0.848,-29.699 -1.699,0 -3.394,0 -5.09,0 -1.699,0 -4.246,0 -5.941,0 0.848,9.332 0.848,19.515 0.848,29.699 z m 9.335,-5.941 c 2.547,-0.848 5.09,-0.848 8.485,-0.848 9.336,0 21.219,3.395 21.219,17.821 0,11.879 -9.336,14.429 -17.825,14.429 -5.089,0 -8.484,0 -11.031,0 0,-8.488 -0.848,-16.976 -0.848,-25.461 v -5.941"
         style="fill:#231f20;fill-opacity:1;fill-rule:evenodd;stroke:none"
         id="path38" />
      <path
         d="m 839.512,715.715 c 10.179,-21.215 21.215,-41.582 33.093,-63.649 4.243,9.336 22.915,42.434 33.946,63.649 h 1.699 c 3.391,-29.703 5.938,-54.313 9.332,-80.617 -1.699,0 -3.394,0 -5.09,0 -1.699,0 -3.398,0 -5.094,0 -1.695,20.367 -3.394,39.882 -5.937,59.402 v 0 C 890.426,674.98 880.246,656.313 870.91,635.098 h -0.851 c -9.332,19.515 -19.516,39.035 -29.7,59.402 v 0 c -2.546,-19.52 -5.941,-46.676 -5.941,-59.402 -1.695,0 -2.547,0 -4.242,0 -0.852,0 -2.547,0 -3.395,0 3.395,25.457 8.485,56.007 11.032,80.617 h 1.699"
         style="fill:#231f20;fill-opacity:1;fill-rule:evenodd;stroke:none"
         id="path40" />
      <path
         d="m 963.406,715.715 c 11.883,-26.305 28.856,-68.738 34.793,-80.617 -1.695,0 -4.238,0 -5.937,0 -1.699,0 -4.242,0 -5.942,0 -2.547,7.636 -7.636,20.367 -11.879,30.547 -5.093,0 -10.183,0 -15.277,0 -5.09,0 -9.336,0 -14.426,0 -4.242,-11.879 -8.488,-23.758 -11.031,-30.547 -1.699,0 -2.547,0 -4.246,0 -0.848,0 -2.543,0 -4.242,0 12.73,26.304 24.609,53.461 36.492,80.617 z m -3.39,-15.277 -12.731,-29.7 c 4.242,0 8.485,0 12.731,0 4.242,0 8.484,0 12.726,0 l -12.726,29.7"
         style="fill:#231f20;fill-opacity:1;fill-rule:evenodd;stroke:none"
         id="path42" />
      <path
         d="m 1067.79,640.188 c -2.55,-2.547 -12.73,-6.79 -23.76,-6.79 -24.61,0 -42.44,15.278 -42.44,41.582 0,25.458 17.83,40.735 43.29,40.735 10.18,0 18.66,-2.547 25.45,-5.094 -1.69,-1.695 -2.54,-6.785 -2.54,-9.332 h -0.85 c -3.4,3.395 -11.03,10.184 -22.06,10.184 -17.83,0 -31.4,-11.035 -31.4,-36.493 0,-26.304 13.57,-37.339 31.4,-37.339 11.03,0 19.51,5.941 23.76,9.336 v 0 l -0.85,-6.789"
         style="fill:#231f20;fill-opacity:1;fill-rule:evenodd;stroke:none"
         id="path44" />
      <path
         d="m 1085.61,684.316 c 0,10.184 -0.85,20.368 -1.7,29.7 7.64,0 14.43,0 21.22,0 6.78,0 13.57,0 20.36,0 0,-0.848 0,-1.696 0,-3.395 0,-0.844 0,-1.695 0,-3.394 -9.33,0.851 -15.27,1.699 -30.54,1.699 0,-5.09 0,-9.336 0,-14.426 0,-5.941 0,-12.73 0,-15.277 13.57,0 21.21,0.847 28,0.847 0,-0.847 -0.85,-2.543 -0.85,-3.39 0,-0.848 0.85,-2.547 0.85,-3.395 -8.49,0.848 -22.91,0.848 -28,0.848 0,-2.547 0,-5.09 0,-16.973 0,-8.484 0,-14.426 0,-16.972 10.18,0 23.75,0 31.39,1.699 -0.85,-0.852 -0.85,-2.547 -0.85,-3.399 0,-1.695 0,-2.543 0.85,-3.39 -6.79,0 -14.43,0 -21.21,0 -6.79,0 -13.58,0 -21.22,0 0.85,9.332 1.7,19.515 1.7,29.699 v 19.519"
         style="fill:#231f20;fill-opacity:1;fill-rule:evenodd;stroke:none"
         id="path46" />
      <path
         d="m 1202.71,714.016 c 0.86,0 2.55,0 4.25,0 0.85,0 2.54,0 3.4,0 -0.86,-10.18 -1.7,-30.547 -1.7,-47.52 -0.85,-20.367 -12.73,-33.098 -33.1,-33.098 -22.91,0 -33.1,10.184 -33.1,33.098 0,6.789 0.85,11.879 0.85,17.82 0,12.731 -0.85,23.762 -0.85,29.7 1.7,0 4.25,0 5.95,0 1.69,0 3.39,0 5.09,0 -0.85,-6.789 -1.7,-22.063 -1.7,-39.036 0,-16.125 0,-36.492 26.31,-36.492 24.6,0 24.6,23.766 24.6,38.192 0,22.062 0,33.097 0,37.336"
         style="fill:#231f20;fill-opacity:1;fill-rule:evenodd;stroke:none"
         id="path48" />
      <path
         d="m 1248.54,684.316 c 0,8.485 0,16.122 0,23.762 -8.48,0 -18.67,0 -24.61,-0.851 0,0.851 0,2.55 0,3.394 0,1.699 0,2.547 0,3.395 9.34,0 19.52,0 29.71,0 9.33,0 19.51,0 29.7,0 -0.85,-0.848 -0.85,-1.696 -0.85,-3.395 0,-0.844 0,-2.543 0.85,-3.394 -6.79,0.851 -16.98,0.851 -24.61,0.851 -0.85,-7.64 -0.85,-15.277 -0.85,-23.762 v -19.519 c 0,-10.184 0.85,-20.367 0.85,-29.699 -1.7,0 -3.4,0 -5.09,0 -1.7,0 -4.25,0 -5.94,0 0.84,9.332 0.84,19.515 0.84,29.699 v 19.519"
         style="fill:#231f20;fill-opacity:1;fill-rule:evenodd;stroke:none"
         id="path50" />
      <path
         d="m 1296.91,684.316 c 0,10.184 -0.85,20.368 -0.85,29.7 1.7,0 3.4,0 5.1,0 2.54,0 4.24,0 5.94,0 0,-9.332 -0.85,-19.516 -0.85,-29.7 v -19.519 c 0,-10.184 0.85,-20.367 0.85,-29.699 -1.7,0 -3.4,0 -5.94,0 -1.7,0 -3.4,0 -5.1,0 0,9.332 0.85,19.515 0.85,29.699 v 19.519"
         style="fill:#231f20;fill-opacity:1;fill-rule:evenodd;stroke:none"
         id="path52" />
      <path
         d="m 1388.57,640.188 c -2.55,-2.547 -12.73,-6.79 -23.77,-6.79 -24.6,0 -42.43,15.278 -42.43,41.582 0,25.458 17.83,40.735 43.28,40.735 10.19,0 18.67,-2.547 25.46,-5.094 -1.7,-1.695 -2.54,-6.785 -2.54,-9.332 h -0.86 c -3.39,3.395 -11.03,10.184 -22.06,10.184 -17.82,0 -32.24,-11.035 -32.24,-36.493 0,-26.304 14.42,-37.339 32.24,-37.339 11.03,0 18.67,5.941 23.76,9.336 v 0 l -0.84,-6.789"
         style="fill:#231f20;fill-opacity:1;fill-rule:evenodd;stroke:none"
         id="path54" />
      <path
         d="m 1429.3,715.715 c 11.88,-26.305 28.85,-68.738 34.79,-80.617 -1.7,0 -3.39,0 -5.94,0 -1.7,0 -4.24,0 -5.94,0 -2.55,7.636 -7.64,20.367 -11.88,30.547 -5.09,0 -10.19,0 -15.28,0 -4.24,0 -9.33,0 -13.57,0 -5.09,-11.879 -9.34,-23.758 -11.88,-30.547 -0.85,0 -2.55,0 -4.24,0 -0.86,0 -2.55,0 -4.25,0 12.73,26.304 24.61,53.461 36.49,80.617 z m -3.4,-15.277 -12.72,-29.7 c 4.23,0 8.48,0 12.72,0 4.24,0 8.49,0 12.73,0 l -12.73,29.7"
         style="fill:#231f20;fill-opacity:1;fill-rule:evenodd;stroke:none"
         id="path56" />
      <path
         d="m 1477.67,684.316 c 0,10.184 -0.85,20.368 -0.85,29.7 1.7,0 3.39,0 5.94,0 1.7,0 3.4,0 5.09,0 0,-9.332 -0.85,-19.516 -0.85,-29.7 0,-19.519 0,-33.097 0.85,-44.128 10.19,0 19.52,0 31.4,1.699 0,-1.699 -0.85,-2.547 -0.85,-3.399 0,-1.695 0.85,-2.543 0.85,-3.39 -6.79,0 -14.43,0 -21.21,0 -6.79,0 -14.43,0 -21.22,0 0,9.332 0.85,19.515 0.85,29.699 v 19.519"
         style="fill:#231f20;fill-opacity:1;fill-rule:evenodd;stroke:none"
         id="path58" />
      <path
         d="m 1532.83,650.371 c 2.55,-5.941 8.49,-11.883 17.82,-11.883 11.03,0 16.97,6.789 16.97,16.125 0,21.219 -36.49,12.731 -36.49,39.887 0,12.727 9.33,21.215 25.46,21.215 6.79,0 11.88,-1.699 16.97,-5.094 -1.7,-2.543 -2.54,-5.09 -3.39,-10.183 h -1.7 c -1.7,4.246 -5.09,11.035 -13.58,11.035 -8.48,0 -14.43,-5.942 -14.43,-14.426 0,-21.215 35.65,-11.883 35.65,-38.192 0,-13.578 -10.18,-25.457 -28,-25.457 -9.34,0 -14.43,3.395 -18.68,6.79 0.85,3.394 1.7,5.941 1.7,10.183 h 1.7"
         style="fill:#231f20;fill-opacity:1;fill-rule:evenodd;stroke:none"
         id="path60" />
      <path
         d="m 1684.73,714.016 c 1.7,0 2.55,0 4.25,0 1.69,0 2.54,0 3.39,0 -0.85,-10.18 -1.7,-30.547 -1.7,-47.52 0,-20.367 -11.88,-33.098 -33.1,-33.098 -22.91,0 -33.09,10.184 -33.09,33.098 0,6.789 0.85,11.879 0.85,17.82 0,12.731 -0.85,23.762 -0.85,29.7 1.7,0 4.24,0 5.94,0 1.7,0 3.39,0 5.09,0 -0.85,-6.789 -1.7,-22.063 -1.7,-39.036 0,-16.125 0,-36.492 26.31,-36.492 25.46,0 25.46,23.766 25.46,38.192 0,22.062 0,33.097 -0.85,37.336"
         style="fill:#231f20;fill-opacity:1;fill-rule:evenodd;stroke:none"
         id="path62" />
      <path
         d="m 1712.73,650.371 c 2.55,-5.941 7.64,-11.883 17.82,-11.883 10.19,0 16.13,6.789 16.13,16.125 0,21.219 -35.64,12.731 -35.64,39.887 0,12.727 9.33,21.215 24.61,21.215 7.64,0 12.73,-1.699 16.97,-5.094 -0.85,-2.543 -1.7,-5.09 -2.55,-10.183 h -1.69 c -1.7,4.246 -5.09,11.035 -13.58,11.035 -8.49,0 -15.28,-5.942 -15.28,-14.426 0,-21.215 36.5,-11.883 36.5,-38.192 0,-13.578 -10.19,-25.457 -28.01,-25.457 -10.19,0 -15.28,3.395 -19.52,6.79 1.7,3.394 1.7,5.941 2.55,10.183 h 1.69"
         style="fill:#231f20;fill-opacity:1;fill-rule:evenodd;stroke:none"
         id="path64" />
      <path
         d="m 1801.84,715.715 c 11.03,-26.305 28,-68.738 34.79,-80.617 -2.54,0 -4.24,0 -6.79,0 -1.69,0 -3.39,0 -5.94,0 -1.69,7.636 -7.63,20.367 -11.88,30.547 -5.09,0 -10.18,0 -15.27,0 -4.25,0 -9.34,0 -13.58,0 -5.09,-11.879 -9.33,-23.758 -11.03,-30.547 -1.7,0 -3.39,0 -4.25,0 -1.69,0 -3.39,0 -5.09,0 12.73,26.304 24.61,53.461 36.49,80.617 z m -4.25,-15.277 -12.72,-29.7 c 4.24,0 8.48,0 12.72,0 4.25,0 8.49,0 12.73,0 l -12.73,29.7"
         style="fill:#231f20;fill-opacity:1;fill-rule:evenodd;stroke:none"
         id="path66" />
    </g>
  </g>
</svg>
